<svg width="24" height="25" viewBox="0 0 24 25" fill="none" xmlns="http://www.w3.org/2000/svg">
<path d="M15.049 15.7813H17.558C18.419 15.7813 19.183 16.3322 19.455 17.1493L20.122 19.1493C20.554 20.4442 19.59 21.7812 18.225 21.7812H5.77497C4.40997 21.7812 3.44597 20.4442 3.87797 19.1493L4.54497 17.1493C4.81597 16.3322 5.58097 15.7812 6.44197 15.7812H8.95197" stroke="white" stroke-width="1.5" stroke-linecap="round" stroke-linejoin="round"/>
<path fill-rule="evenodd" clip-rule="evenodd" d="M12 18.7812C12 18.7812 6 13.9893 6 9.61425C6 6.39325 8.686 3.78125 12 3.78125C15.314 3.78125 18 6.39325 18 9.61425C18 13.9893 12 18.7812 12 18.7812Z" stroke="white" stroke-width="1.5" stroke-linecap="round" stroke-linejoin="round"/>
<path d="M13.4142 8.36704C14.1953 9.14809 14.1953 10.4144 13.4142 11.1955C12.6332 11.9765 11.3668 11.9765 10.5858 11.1955C9.80474 10.4144 9.80474 9.14809 10.5858 8.36704C11.3668 7.58599 12.6332 7.58599 13.4142 8.36704" stroke="white" stroke-width="1.5" stroke-linecap="round" stroke-linejoin="round"/>
</svg>
