<svg width="60" height="60" viewBox="0 0 60 60" fill="none" xmlns="http://www.w3.org/2000/svg">
<circle cx="30" cy="30" r="30" fill="url(#paint0_radial_17_1460)"/>
<path d="M21.6247 43.1082C19.9149 41.4392 18.2052 39.7034 17.1171 37.6337C16.0291 35.4306 15.7182 32.8937 16.2622 30.4902C16.8063 28.0868 18.0497 25.8169 19.8373 23.8808C19.6818 25.5499 20.3813 27.2857 21.7025 28.5542C20.9253 25.3496 22.1688 21.8779 24.6557 19.341C27.1427 16.8041 30.5623 15.1349 34.1373 14C32.3498 15.6023 32.1166 18.1392 32.8161 20.2756C33.5155 22.412 34.9922 24.2814 36.3134 26.2174C37.6346 28.1535 38.8781 30.1564 38.9558 32.3595C39.6553 31.2246 40.4325 30.0896 40.8988 28.8212C41.3651 27.5527 41.5982 26.2174 41.2097 24.9489C42.6086 26.4177 43.3858 27.8865 43.7743 29.7558C44.1629 31.6252 44.0852 33.5612 43.8521 35.4306C43.5412 37.5002 42.9195 39.6366 41.5983 41.3724C40.044 43.442 37.557 44.9108 34.8369 45.7119C30.0182 46.4463 25.2774 45.8455 21.6247 43.1082Z" fill="white"/>
<path d="M27.7396 45.4339C36.4637 48.3191 45.0814 39.5734 40.2937 32.8112C40.2937 32.721 40.1873 32.721 40.1873 32.6309C40.6129 36.3275 39.549 39.0324 37.5275 40.5652C38.5914 38.4013 37.8467 35.8768 36.57 33.7129C35.2933 31.6392 33.4847 29.7458 32.1015 27.7622C30.7184 25.6885 29.6546 23.3442 30.2929 21C27.7395 22.6229 25.9309 25.0573 25.1861 27.672C24.4414 30.2867 24.867 33.1719 26.2501 35.6063C24.6542 34.6145 23.4839 32.9916 23.3775 31.2785C21.6752 32.9916 20.6114 35.2456 20.7177 37.4997C20.7178 41.016 24.0159 44.1717 27.7396 45.4339Z" fill="#FAA431"/>
<defs>
<radialGradient id="paint0_radial_17_1460" cx="0" cy="0" r="1" gradientUnits="userSpaceOnUse" gradientTransform="translate(30 30) rotate(90) scale(30)">
<stop stop-color="white" stop-opacity="0.5"/>
<stop offset="1" stop-color="#FAD42C"/>
</radialGradient>
</defs>
</svg>
