<svg width="24" height="25" viewBox="0 0 24 25" fill="none" xmlns="http://www.w3.org/2000/svg">
<path fill-rule="evenodd" clip-rule="evenodd" d="M7.409 14.746L5.874 7.5H18.5C19.151 7.5 19.628 8.111 19.47 8.743L18.122 14.135C17.917 14.954 17.221 15.556 16.381 15.64L9.565 16.322C8.549 16.423 7.62 15.744 7.409 14.746Z" fill="#F5DC6C" stroke="#F5DC6C" stroke-linecap="round" stroke-linejoin="round"/>
<path d="M5.874 7.5L5.224 4.5H3.5" stroke="#F5DC6C" stroke-linecap="round" stroke-linejoin="round"/>
<mask id="path-3-outside-1_1090_2420" maskUnits="userSpaceOnUse" x="14.611" y="17.633" width="5" height="5" fill="black">
<rect fill="white" x="14.611" y="17.633" width="5" height="5"/>
<path fill-rule="evenodd" clip-rule="evenodd" d="M17.109 19.767C16.907 19.767 16.743 19.931 16.745 20.133C16.745 20.335 16.909 20.499 17.111 20.499C17.313 20.499 17.477 20.335 17.477 20.133C17.476 19.931 17.312 19.767 17.109 19.767Z"/>
</mask>
<path d="M17.109 21.267C17.9374 21.267 18.609 20.5954 18.609 19.767C18.609 18.9386 17.9374 18.267 17.109 18.267V21.267ZM16.745 20.133H18.245C18.245 20.128 18.245 20.1231 18.2449 20.1181L16.745 20.133ZM17.477 20.133H18.977L18.977 20.1256L17.477 20.133ZM17.109 18.267C16.2806 18.267 15.609 18.9386 15.609 19.767C15.609 20.5954 16.2806 21.267 17.109 21.267V18.267ZM17.109 18.267C16.0815 18.267 15.2347 19.103 15.2451 20.1478L18.2449 20.1181C18.2513 20.759 17.7325 21.267 17.109 21.267V18.267ZM15.245 20.133C15.245 21.1634 16.0806 21.999 17.111 21.999V18.999C17.7374 18.999 18.245 19.5066 18.245 20.133H15.245ZM17.111 21.999C18.1414 21.999 18.977 21.1634 18.977 20.133H15.977C15.977 19.5066 16.4846 18.999 17.111 18.999V21.999ZM18.977 20.1256C18.9719 19.0997 18.1392 18.267 17.109 18.267V21.267C16.4848 21.267 15.9801 20.7623 15.977 20.1404L18.977 20.1256Z" fill="#F5DC6C" mask="url(#path-3-outside-1_1090_2420)"/>
<mask id="path-5-outside-2_1090_2420" maskUnits="userSpaceOnUse" x="6.19849" y="17.6335" width="5" height="5" fill="black">
<rect fill="white" x="6.19849" y="17.6335" width="5" height="5"/>
<path fill-rule="evenodd" clip-rule="evenodd" d="M8.697 19.767C8.495 19.767 8.331 19.931 8.333 20.133C8.331 20.336 8.496 20.5 8.698 20.5C8.9 20.5 9.064 20.336 9.064 20.134C9.064 19.931 8.9 19.767 8.697 19.767Z"/>
</mask>
<path d="M8.697 21.267C9.52543 21.267 10.197 20.5954 10.197 19.767C10.197 18.9386 9.52543 18.267 8.697 18.267V21.267ZM8.333 20.133L9.83293 20.1478C9.83302 20.1379 9.83302 20.128 9.83293 20.1181L8.333 20.133ZM8.697 18.267C7.86857 18.267 7.197 18.9386 7.197 19.767C7.197 20.5954 7.86857 21.267 8.697 21.267V18.267ZM8.697 18.267C7.66948 18.267 6.82273 19.103 6.83307 20.1478L9.83293 20.1181C9.83927 20.759 9.32052 21.267 8.697 21.267V18.267ZM6.83307 20.1182C6.82274 21.1667 7.67314 22 8.698 22V19C9.31886 19 9.83926 19.5053 9.83293 20.1478L6.83307 20.1182ZM8.698 22C9.72843 22 10.564 21.1644 10.564 20.134H7.564C7.564 19.5076 8.07157 19 8.698 19V22ZM10.564 20.134C10.564 19.1026 9.72843 18.267 8.697 18.267V21.267C8.07157 21.267 7.564 20.7594 7.564 20.134H10.564Z" fill="#F5DC6C" mask="url(#path-5-outside-2_1090_2420)"/>
</svg>
