<svg width="32" height="33" viewBox="0 0 32 33" fill="none" xmlns="http://www.w3.org/2000/svg">
<path fill-rule="evenodd" clip-rule="evenodd" d="M16 32.7812C24.8366 32.7812 32 25.6178 32 16.7812C32 7.94469 24.8366 0.78125 16 0.78125C7.16344 0.78125 0 7.94469 0 16.7812C0 25.6178 7.16344 32.7812 16 32.7812ZM16.4 10.9176C17.9269 10.9176 19.2979 11.4423 20.3756 12.4729L23.3585 9.48999C21.5575 7.81177 19.2032 6.78125 16.4 6.78125C12.3346 6.78125 8.8175 9.11182 7.1062 12.5107C6.40186 13.9147 6 15.5031 6 17.1812C6 18.8594 6.40186 20.4478 7.1062 21.8517C8.8175 25.2507 12.3346 27.5812 16.4 27.5812C19.208 27.5812 21.5623 26.65 23.283 25.0616C25.2495 23.2511 26.384 20.5849 26.384 17.4176C26.384 16.6802 26.3179 15.9711 26.1949 15.2903H16.4V19.3132H21.9971C21.756 20.6133 21.0233 21.7147 19.9219 22.4521C18.9906 23.0761 17.7993 23.4449 16.4 23.4449C13.6913 23.4449 11.3986 21.6154 10.5807 19.1572C10.3727 18.5332 10.2545 17.8667 10.2545 17.1812C10.2545 16.4958 10.3727 15.8292 10.5807 15.2053C11.3986 12.7471 13.6913 10.9176 16.4 10.9176Z" fill="white"/>
</svg>
