<svg width="32" height="33" viewBox="0 0 32 33" fill="none" xmlns="http://www.w3.org/2000/svg">
<g clip-path="url(#clip0_51_6104)">
<path d="M32 16.7812C32 7.94375 24.8375 0.78125 16 0.78125C7.1625 0.78125 0 7.94375 0 16.7812C0 25.6187 7.1625 32.7812 16 32.7812C16.0938 32.7812 16.1875 32.7812 16.2812 32.775V20.325H12.8438V16.3188H16.2812V13.3687C16.2812 9.95 18.3688 8.0875 21.4188 8.0875C22.8813 8.0875 24.1375 8.19375 24.5 8.24375V11.8188H22.4C20.7437 11.8188 20.4188 12.6062 20.4188 13.7625V16.3125H24.3875L23.8687 20.3188H20.4188V32.1625C27.1063 30.2437 32 24.0875 32 16.7812Z" fill="white"/>
</g>
<defs>
<clipPath id="clip0_51_6104">
<rect width="32" height="32" fill="white" transform="translate(0 0.78125)"/>
</clipPath>
</defs>
</svg>
