<svg width="60" height="60" viewBox="0 0 60 60" fill="none" xmlns="http://www.w3.org/2000/svg">
<circle cx="30" cy="30" r="30" fill="url(#paint0_radial_17_1451)"/>
<path d="M22.3786 34H37.0454C37.5726 34 38 34.4477 38 35V45C38 45.5523 37.5726 46 37.0454 46H22.3786C21.8125 45.9996 21.2758 45.736 20.9133 45.2805L17.2211 40.64C16.9263 40.2692 16.9263 39.7308 17.2211 39.36L20.9133 34.7195C21.2758 34.264 21.8125 34.0004 22.3786 34Z" fill="white"/>
<path d="M23.6769 37.8385C24.14 37.8385 24.5154 38.2138 24.5154 38.6769C24.5154 38.9084 24.7031 39.0961 24.9346 39.0961C25.1661 39.0961 25.3538 38.9084 25.3538 38.6769C25.3538 37.7508 24.6031 37 23.6769 37C22.7508 37 22 37.7508 22 38.6769C22 39.6031 22.7508 40.3538 23.6769 40.3538C24.14 40.3538 24.5154 40.7292 24.5154 41.1923C24.5154 41.6554 24.14 42.0307 23.6769 42.0307C23.2138 42.0307 22.8385 41.6554 22.8385 41.1923C22.8385 40.9608 22.6508 40.7731 22.4192 40.7731C22.1877 40.7731 22 40.9608 22 41.1923C22 42.1184 22.7508 42.8692 23.6769 42.8692C24.6031 42.8692 25.3538 42.1184 25.3538 41.1923C25.3538 40.2662 24.6031 39.5154 23.6769 39.5154C23.2138 39.5154 22.8385 39.14 22.8385 38.6769C22.8385 38.2138 23.2138 37.8385 23.6769 37.8385Z" fill="#FFB34E"/>
<path d="M27.45 37C26.5239 37 25.7731 37.7508 25.7731 38.6769V42.45C25.7731 42.6815 25.9608 42.8692 26.1923 42.8692C26.4238 42.8692 26.6115 42.6815 26.6115 42.45V40.3538H28.2884V42.45C28.2884 42.6815 28.4761 42.8692 28.7077 42.8692C28.9392 42.8692 29.1269 42.6815 29.1269 42.45V38.6769C29.1269 37.7508 28.3761 37 27.45 37ZM28.2884 39.5154H26.6115V38.6769C26.6115 38.2138 26.9869 37.8385 27.45 37.8385C27.9131 37.8385 28.2884 38.2138 28.2884 38.6769V39.5154Z" fill="#FFB34E"/>
<path d="M31.6422 42.0307H30.3845V37.4192C30.3845 37.1877 30.1968 37 29.9652 37C29.7337 37 29.546 37.1877 29.546 37.4192V42.45C29.546 42.6815 29.7337 42.8692 29.9652 42.8692H31.6422C31.8737 42.8692 32.0614 42.6815 32.0614 42.45C32.0614 42.2184 31.8737 42.0307 31.6422 42.0307Z" fill="#FFB34E"/>
<path d="M34.5769 42.0307H33.3192V40.3538H34.1576C34.3892 40.3538 34.5769 40.1661 34.5769 39.9346C34.5769 39.7031 34.3892 39.5154 34.1576 39.5154H33.3192V37.8385H34.5769C34.8084 37.8385 34.9961 37.6508 34.9961 37.4192C34.9961 37.1877 34.8084 37 34.5769 37H32.8999C32.6684 37 32.4807 37.1877 32.4807 37.4192V42.45C32.4807 42.6815 32.6684 42.8692 32.8999 42.8692H34.5769C34.8084 42.8692 34.9961 42.6815 34.9961 42.45C34.9961 42.2184 34.8084 42.0307 34.5769 42.0307Z" fill="#FFB34E"/>
<path d="M35.5861 26.5075L39.3597 22.7442C39.4647 22.6447 39.5035 22.4804 39.4565 22.3341C39.4095 22.1878 39.2869 22.0912 39.1506 22.0931H35.0134C34.9081 22.0942 34.8089 22.0363 34.7479 21.938C34.687 21.8397 34.672 21.7134 34.7078 21.6001L36.9759 14.4929C37.0115 14.3802 36.9969 14.2547 36.9367 14.1566C36.8765 14.0585 36.7783 14 36.6735 14H28.6437C28.5074 14.0006 28.3862 14.0993 28.3413 14.2464L25.018 24.9146C24.9837 25.0269 24.999 25.1512 25.059 25.2483C25.119 25.3455 25.2164 25.4034 25.3204 25.4039H28.9203C29.026 25.4035 29.125 25.4624 29.1854 25.5615C29.2457 25.6607 29.2597 25.7874 29.2227 25.9005L26.3081 34.8397C26.2584 34.9959 26.3065 35.1709 26.4255 35.2664C26.5444 35.362 26.7047 35.3545 26.8164 35.248L30.0849 31.9887L35.5861 26.5075Z" fill="#FFB34E"/>
<defs>
<radialGradient id="paint0_radial_17_1451" cx="0" cy="0" r="1" gradientUnits="userSpaceOnUse" gradientTransform="translate(30 30) rotate(90) scale(30)">
<stop stop-color="white" stop-opacity="0.5"/>
<stop offset="1" stop-color="#FAD42C"/>
</radialGradient>
</defs>
</svg>
