<svg width="60" height="60" viewBox="0 0 60 60" fill="none" xmlns="http://www.w3.org/2000/svg">
<circle cx="30" cy="30" r="30" fill="url(#paint0_radial_17_1462)"/>
<path fill-rule="evenodd" clip-rule="evenodd" d="M30.3455 41.143C30.6581 41.399 30.8137 41.5382 30.9708 41.5441C31.1263 41.5381 31.2834 41.3989 31.596 41.143L39.8393 32.7021C42.2775 30.0934 42.2775 25.8236 39.8393 23.2135C37.6241 20.8428 33.9863 21.3697 31.6782 23.64L31.2445 24.0666C30.9931 24.3135 30.9453 24.3135 30.688 24.0606L30.2617 23.64C27.9582 21.3682 24.3159 20.8428 22.1006 23.2135C19.6624 25.8236 19.6624 30.0934 22.1006 32.7021L23.0893 33.7153L30.3455 41.143Z" fill="#FAA431"/>
<path fill-rule="evenodd" clip-rule="evenodd" d="M32.6939 22.8094C33.8801 24.5306 34.5682 26.5749 34.5682 28.7675C34.5682 29.0069 34.5592 29.2434 34.5427 29.4769C34.4111 31.424 33.735 33.2349 32.655 34.781C32.1794 35.4619 31.6259 36.092 31.0037 36.6607C30.3396 37.2684 29.5991 37.8042 28.7959 38.2546C28.5206 38.4088 28.2379 38.554 27.9478 38.6887L30.3455 41.1431C30.6582 41.3991 30.8137 41.5383 30.9708 41.5442C31.1264 41.5382 31.2834 41.399 31.5961 41.1431L34.118 38.5599L39.8394 32.7021C41.7659 30.6412 42.1698 27.5417 41.0525 25.0454C40.7548 24.3824 40.3509 23.7613 39.8394 23.2135C39.5028 22.8543 39.1333 22.561 38.7414 22.3305C37.464 21.5807 35.9428 21.4954 34.5068 21.9354C33.8771 22.1285 33.2623 22.4248 32.6939 22.8094Z" fill="#FF9302"/>
<path d="M33.4015 31.7881C33.3992 31.7881 33.3968 31.7881 33.3945 31.7881C33.2538 31.7856 33.1252 31.7078 33.0575 31.5844L31.0294 27.8867L29.5194 30.5264C29.4509 30.6461 29.3248 30.721 29.1871 30.7239C29.0483 30.7265 28.9201 30.6572 28.8468 30.5406L27.9088 29.0493L27.2009 30.2256C27.13 30.3436 27.0024 30.4157 26.8648 30.4157H24.4132C24.1965 30.4157 24.0209 30.2399 24.0209 30.0232C24.0209 29.8064 24.1965 29.6306 24.4132 29.6306H26.6431L27.5653 28.0981C27.6355 27.9813 27.7613 27.9093 27.8975 27.908C27.8988 27.908 27.9001 27.908 27.9014 27.908C28.0361 27.908 28.1616 27.9772 28.2334 28.0914L29.1628 29.569L30.6961 26.8887C30.766 26.7665 30.896 26.6912 31.0366 26.6912C31.0378 26.6912 31.0389 26.6912 31.0401 26.6912C31.182 26.6925 31.3122 26.7704 31.3806 26.8949L33.4154 30.6051L34.442 28.8809C34.5127 28.7621 34.6408 28.6892 34.7791 28.6892H38.0489C38.2656 28.6892 38.4412 28.865 38.4412 29.0818C38.4412 29.2986 38.2656 29.4743 38.0489 29.4743H35.0021L33.7385 31.5965C33.6677 31.7154 33.5396 31.7881 33.4015 31.7881Z" fill="#F8F2F0"/>
<path fill-rule="evenodd" clip-rule="evenodd" d="M38.7415 25.7264C41.0869 25.7264 43.0001 23.8122 43.0001 21.464C43.0001 19.1173 41.0869 17.2031 38.7415 17.2031C36.3946 17.2031 34.4814 19.1173 34.4814 21.464C34.4814 23.8122 36.3946 25.7264 38.7415 25.7264Z" fill="#F8F2F0"/>
<path fill-rule="evenodd" clip-rule="evenodd" d="M37.2143 17.4845C38.7116 18.146 39.7556 19.6426 39.7556 21.3847C39.7556 21.4116 39.7556 21.4386 39.7541 21.464C39.7452 21.9594 39.6524 22.4338 39.4879 22.8723C39.0631 24.0158 38.1596 24.9272 37.0228 25.3642C37.5479 25.5977 38.1297 25.7264 38.7415 25.7264C39.5926 25.7264 40.3869 25.4764 41.0525 25.0454C42.2252 24.2851 43 22.9651 43 21.464C43 19.1113 41.0929 17.2031 38.7415 17.2031C38.203 17.2031 37.6885 17.3019 37.2143 17.4845Z" fill="#DEE6F9"/>
<path d="M40.2911 21.0714H39.1338V19.9135C39.1338 19.6967 38.9581 19.5209 38.7414 19.5209C38.5247 19.5209 38.3491 19.6967 38.3491 19.9135V21.0714H37.1918C36.9751 21.0714 36.7994 21.2472 36.7994 21.464C36.7994 21.6808 36.9751 21.8565 37.1918 21.8565H38.3491V23.0145C38.3491 23.2313 38.5247 23.407 38.7414 23.407C38.9581 23.407 39.1338 23.2313 39.1338 23.0145V21.8565H40.2911C40.5077 21.8565 40.6834 21.6807 40.6834 21.4639C40.6834 21.2471 40.5078 21.0714 40.2911 21.0714Z" fill="#FF9302"/>
<path fill-rule="evenodd" clip-rule="evenodd" d="M20.6333 34.6642L19.7598 37.4988L20.6333 40.5025L24.657 41.598L27.9208 42.4855C29.825 43.0782 30.6656 42.7399 32.4172 42.1772L38.8357 40.1179C40.6785 39.5267 40.4033 36.9914 37.7064 37.858L34.118 38.5599L33.5316 38.6751C32.661 38.8442 32.5414 38.9145 31.6633 38.7784L28.7959 38.2546L28.2753 38.1588C27.0996 37.7832 27.5573 36.2087 28.5835 36.3643C29.2775 36.4527 30.2079 36.5783 31.0036 36.6607C31.0201 36.6621 31.0366 36.6637 31.0515 36.6651C32.5877 36.8208 33.204 35.6729 32.6551 34.7809C32.4472 34.4412 32.0687 34.1373 31.5078 33.9592L29.3463 33.5626C27.9447 33.3052 26.9485 33.6255 24.7737 33.9832L23.5486 34.1853L20.6333 34.6642Z" fill="#FFE77E"/>
<path fill-rule="evenodd" clip-rule="evenodd" d="M17 34.1568V41.0637C17 41.1505 17.0913 41.2209 17.202 41.2209H20.4299C20.5421 41.2209 20.6333 41.1505 20.6333 41.0637V40.5025V34.6642V34.1568C20.6333 34.07 20.5421 33.9996 20.4299 33.9996H17.202C17.0913 33.9997 17 34.07 17 34.1568V34.1568Z" fill="#E35000"/>
<path fill-rule="evenodd" clip-rule="evenodd" d="M17 40.0026V41.0637C17 41.1505 17.0913 41.2209 17.202 41.2209H20.4299C20.5421 41.2209 20.6333 41.1506 20.6333 41.0637V40.5025V40.0026C20.6333 40.0879 20.5421 40.1598 20.4299 40.1598H17.202C17.0913 40.1598 17 40.0879 17 40.0026V40.0026Z" fill="#D14A01"/>
<path fill-rule="evenodd" clip-rule="evenodd" d="M20.6333 40.0026V40.5025L24.657 41.598L27.9208 42.4855C29.825 43.0782 30.6656 42.7399 32.4172 42.1772L38.8357 40.1179C39.8753 39.7856 40.2402 38.8338 39.8783 38.2217C39.7003 38.5749 39.3518 38.8921 38.8357 39.0568L32.4172 41.1161C30.6656 41.6773 29.825 42.0171 27.9208 41.4244L24.657 40.5369L20.6333 39.4399V40.0026Z" fill="#FCD423"/>
<path fill-rule="evenodd" clip-rule="evenodd" d="M28.5835 35.3033C27.7698 35.1805 27.3135 36.1429 27.7443 36.734C27.9163 36.4781 28.2125 36.309 28.5835 36.3643C29.2775 36.4526 30.2079 36.5783 31.0037 36.6606L31.0515 36.6651C32.5159 36.8133 33.1442 35.7791 32.7253 34.9095C32.6102 35.1311 32.4172 35.3211 32.151 35.4483C31.8667 35.5845 31.4973 35.6489 31.0515 35.604L31.0037 35.5995C30.2079 35.5172 29.2776 35.3915 28.5835 35.3033Z" fill="#FCD323"/>
<defs>
<radialGradient id="paint0_radial_17_1462" cx="0" cy="0" r="1" gradientUnits="userSpaceOnUse" gradientTransform="translate(30 30) rotate(90) scale(30)">
<stop stop-color="white" stop-opacity="0.5"/>
<stop offset="1" stop-color="#FAD42C"/>
</radialGradient>
</defs>
</svg>
