<svg width="32" height="33" viewBox="0 0 32 33" fill="none" xmlns="http://www.w3.org/2000/svg">
<path d="M12.9375 16.7812C12.9375 18.4727 14.3086 19.8438 16 19.8438C17.6914 19.8438 19.0625 18.4727 19.0625 16.7812C19.0625 15.0898 17.6914 13.7188 16 13.7188C14.3086 13.7188 12.9375 15.0898 12.9375 16.7812Z" fill="white"/>
<path d="M8.83691 11.3625C8.98413 10.9636 9.21899 10.6025 9.52417 10.3062C9.82056 10.001 10.1814 9.76611 10.5806 9.6189C10.9043 9.49316 11.3906 9.34351 12.2864 9.30273C13.2554 9.25854 13.5459 9.24902 15.999 9.24902C18.4524 9.24902 18.7429 9.2583 19.7117 9.30249C20.6074 9.34351 21.094 9.49316 21.4175 9.6189C21.8167 9.76611 22.1777 10.001 22.4739 10.3062C22.7791 10.6025 23.0139 10.9634 23.1614 11.3625C23.2871 11.6863 23.4368 12.1729 23.4775 13.0686C23.5217 14.0374 23.5312 14.3279 23.5312 16.7812C23.5312 19.2344 23.5217 19.5249 23.4775 20.4939C23.4368 21.3896 23.2871 21.876 23.1614 22.1997C23.0139 22.5989 22.7793 22.9597 22.4741 23.2561C22.1777 23.5613 21.8169 23.7961 21.4177 23.9434C21.094 24.0693 20.6074 24.219 19.7117 24.2598C18.7429 24.304 18.4526 24.3132 15.9993 24.3132C13.5457 24.3132 13.2551 24.304 12.2866 24.2598C11.3909 24.219 10.9043 24.0693 10.5806 23.9434C9.7793 23.6343 9.146 23.001 8.83691 22.1997C8.71118 21.876 8.56152 21.3896 8.52051 20.4939C8.47632 19.5249 8.46704 19.2344 8.46704 16.7812C8.46704 14.3279 8.47632 14.0374 8.52051 13.0686C8.56128 12.1729 8.71094 11.6863 8.83691 11.3625ZM15.999 21.4988C18.6047 21.4988 20.717 19.3867 20.717 16.781C20.717 14.1753 18.6047 12.0632 15.999 12.0632C13.3936 12.0632 11.2812 14.1753 11.2812 16.781C11.2812 19.3867 13.3936 21.4988 15.999 21.4988ZM11.0947 12.9792C11.7036 12.9792 12.1973 12.4856 12.1973 11.8767C12.1973 11.2678 11.7036 10.7742 11.0947 10.7742C10.4858 10.7742 9.99219 11.2678 9.99219 11.8767C9.99243 12.4856 10.4858 12.9792 11.0947 12.9792Z" fill="white"/>
<path d="M16 0.78125C24.8352 0.78125 32 7.94604 32 16.7812C32 25.6165 24.8352 32.7812 16 32.7812C7.16479 32.7812 0 25.6165 0 16.7812C0 7.94604 7.16479 0.78125 16 0.78125ZM6.86792 20.5691C6.91235 21.5471 7.06787 22.2148 7.29492 22.7993C7.77222 24.0334 8.7478 25.009 9.98193 25.4863C10.5662 25.7134 11.2341 25.8687 12.2119 25.9133C13.1917 25.958 13.5046 25.9688 15.9998 25.9688C18.4951 25.9688 18.8079 25.958 19.7878 25.9133C20.7656 25.8687 21.4336 25.7134 22.0178 25.4863C22.6311 25.2556 23.1863 24.894 23.6453 24.4265C24.1125 23.9678 24.4741 23.4124 24.7048 22.7993C24.9319 22.2151 25.0874 21.5471 25.1318 20.5693C25.177 19.5894 25.1875 19.2764 25.1875 16.7812C25.1875 14.2861 25.177 13.9731 25.1321 12.9934C25.0876 12.0154 24.9324 11.3477 24.7053 10.7632C24.4746 10.1501 24.1128 9.59473 23.6453 9.13599C23.1865 8.66846 22.6311 8.30688 22.0181 8.07617C21.4336 7.84912 20.7659 7.69385 19.7878 7.64917C18.8081 7.60449 18.4951 7.59375 16 7.59375C13.5049 7.59375 13.1919 7.60449 12.2122 7.64941C11.2341 7.69385 10.5664 7.84912 9.98193 8.07593C9.3689 8.30664 8.81348 8.66846 8.35449 9.13599C7.88721 9.59497 7.52539 10.1501 7.29492 10.7632C7.06763 11.3477 6.91235 12.0154 6.86768 12.9934C6.823 13.9731 6.8125 14.2861 6.8125 16.7812C6.8125 19.2764 6.823 19.5894 6.86792 20.5691Z" fill="white"/>
</svg>
