<svg width="60" height="60" viewBox="0 0 60 60" fill="none" xmlns="http://www.w3.org/2000/svg">
<circle cx="30" cy="30" r="30" fill="url(#paint0_radial_17_1461)"/>
<path d="M38.3122 19.225C36.5805 16.075 33.441 13.705 30 13.7037C26.559 13.7025 23.4195 16.075 21.6877 19.225C20.791 20.857 20.959 24.111 21.5252 26.7067H38.475C39.041 24.1112 39.209 20.8572 38.3122 19.225V19.225Z" fill="#FAA431"/>
<path d="M36.99 26.2835L36.3475 30.8267C37.4903 31.0135 38.7993 29.6975 38.9888 28.555C39.2218 27.1512 38.4218 26.1652 36.99 26.2835Z" fill="#FAA431"/>
<path d="M21.0112 28.555C21.2007 29.6975 22.5097 31.0135 23.6525 30.8267L23.01 26.2835C21.5782 26.1652 20.7782 27.1512 21.0112 28.555V28.555Z" fill="#FAA431"/>
<path d="M36.6 28.9342C36.5368 28.9344 36.4745 28.9187 36.419 28.8884C36.3635 28.858 36.3166 28.8142 36.2826 28.7609C36.2486 28.7076 36.2286 28.6465 36.2245 28.5834C36.2205 28.5203 36.2324 28.4572 36.2593 28.4C36.4091 28.1506 36.6257 27.9479 36.8845 27.8149C37.1434 27.6819 37.4342 27.6239 37.7243 27.6472C37.8228 27.6573 37.9134 27.706 37.9762 27.7827C38.039 27.8594 38.0688 27.9578 38.0593 28.0564C38.0497 28.155 38.0015 28.2459 37.9252 28.3091C37.8489 28.3723 37.7507 28.4027 37.652 28.3937C37.5156 28.3856 37.3793 28.411 37.2549 28.4676C37.1305 28.5243 37.0219 28.6105 36.9385 28.7187C36.9083 28.783 36.8604 28.8374 36.8005 28.8756C36.7406 28.9137 36.671 28.9341 36.6 28.9342Z" fill="#E35000"/>
<path d="M23.4015 28.9343C23.3302 28.9343 23.2603 28.914 23.2 28.8758C23.1398 28.8375 23.0918 28.7829 23.0615 28.7183C22.9779 28.6103 22.8692 28.5242 22.7449 28.4676C22.6206 28.411 22.4844 28.3855 22.348 28.3933C22.2988 28.3983 22.2492 28.3936 22.2018 28.3793C22.1545 28.3651 22.1104 28.3417 22.0722 28.3103C22.034 28.279 22.0023 28.2405 21.979 28.1969C21.9557 28.1533 21.9413 28.1055 21.9365 28.0563C21.9318 28.0071 21.9368 27.9575 21.9513 27.9102C21.9658 27.863 21.9895 27.8191 22.021 27.781C22.0525 27.7429 22.0912 27.7115 22.135 27.6884C22.1787 27.6654 22.2265 27.6512 22.2758 27.6468C22.5658 27.6232 22.8567 27.6812 23.1156 27.8142C23.3745 27.9472 23.591 28.15 23.7408 28.3995C23.7674 28.4566 23.7793 28.5195 23.7752 28.5824C23.7712 28.6453 23.7513 28.7062 23.7175 28.7594C23.6837 28.8126 23.637 28.8564 23.5818 28.8868C23.5265 28.9172 23.4645 28.9342 23.4015 28.9343Z" fill="#E35000"/>
<path d="M41.065 44.415H18.9337C18.8477 44.4148 18.7632 44.3924 18.6883 44.3502C18.6134 44.3079 18.5507 44.2471 18.506 44.1736C18.4614 44.1001 18.4364 44.0163 18.4334 43.9304C18.4304 43.8444 18.4495 43.7592 18.489 43.6827C18.8399 42.9856 19.3122 42.3565 19.8837 41.825C21.0987 40.6975 24.1812 40.1375 25.7587 39.3375C26.1738 39.1377 26.5377 38.8458 26.8228 38.4841C27.1079 38.1223 27.3066 37.7002 27.4037 37.25C27.4287 37.1525 27.4487 37.0575 27.4637 36.9625C27.5339 36.43 27.5773 35.8943 27.5937 35.3575H32.4037C32.421 35.8935 32.4653 36.4284 32.5362 36.96C32.5512 37.055 32.5712 37.1525 32.5962 37.25C32.6934 37.7002 32.8921 38.1223 33.1772 38.4841C33.4623 38.8458 33.8262 39.1377 34.2412 39.3375C35.8162 40.1375 38.8987 40.6975 40.1162 41.825C40.6864 42.3572 41.158 42.9859 41.5092 43.6822C41.5488 43.7586 41.568 43.8439 41.5651 43.9299C41.5622 44.0159 41.5373 44.0997 41.4927 44.1732C41.4481 44.2468 41.3853 44.3077 41.3104 44.35C41.2355 44.3923 41.151 44.4147 41.065 44.415V44.415Z" fill="#FAA431"/>
<path d="M32.5362 36.96C31.8603 37.345 31.1293 37.6241 30.3687 37.7875C30.126 37.8425 29.874 37.8425 29.6312 37.7875C28.8712 37.6235 28.1404 37.3453 27.4637 36.9625C27.5339 36.43 27.5773 35.8943 27.5937 35.3575H32.4037C32.421 35.8935 32.4653 36.4284 32.5362 36.96V36.96Z" fill="#E35000"/>
<path d="M36.746 29.475C36.3685 31.395 35.5835 32.94 34.566 33.945C34.5535 33.96 34.5385 33.9725 34.526 33.985C33.5635 34.9175 32.3385 35.925 30.366 36.36C30.1232 36.415 29.8712 36.415 29.6285 36.36C27.656 35.925 26.431 34.9175 25.4685 33.985C25.456 33.9725 25.441 33.96 25.4285 33.945C24.406 32.9375 23.6535 31.39 23.2785 29.465C23.0773 28.4165 22.986 27.3499 23.006 26.2825C23.061 21.84 24.996 24.105 26.4285 19.9675C27.625 16.4975 31.346 16.8525 33.25 19.1775C33.4033 19.3617 33.6064 19.498 33.835 19.57C36.335 20.3725 36.865 22.79 36.985 26.2825C37.0278 27.3523 36.9476 28.4235 36.746 29.475Z" fill="#FBF6E1"/>
<path d="M30 30.0425C29.6502 30.0307 29.3168 29.8919 29.062 29.652C29.0004 29.5894 28.9647 29.5059 28.9618 29.4182C28.9589 29.3305 28.989 29.2449 29.0463 29.1783C29.1035 29.1118 29.1837 29.0692 29.2709 29.059C29.3581 29.0488 29.4459 29.0717 29.517 29.1232C29.5769 29.1927 29.651 29.2484 29.7343 29.2866C29.8177 29.3248 29.9083 29.3445 30 29.3445C30.0917 29.3445 30.1823 29.3248 30.2656 29.2866C30.349 29.2484 30.4231 29.1927 30.483 29.1232C30.5541 29.0717 30.6419 29.0488 30.7291 29.059C30.8163 29.0692 30.8964 29.1118 30.9537 29.1783C31.0109 29.2449 31.0411 29.3305 31.0382 29.4182C31.0353 29.5059 30.9995 29.5894 30.938 29.652C30.6832 29.8919 30.3497 30.0307 30 30.0425V30.0425Z" fill="#FAA431"/>
<path d="M32.1772 31.6185C32.1634 31.5485 32.1222 31.4869 32.0629 31.4471C32.0036 31.4074 31.931 31.3929 31.861 31.4067H31.8567C31.5687 31.4659 31.2726 31.4743 30.9817 31.4317C30.9092 31.4215 30.8382 31.4067 30.7542 31.3915C30.635 31.3641 30.5118 31.3582 30.3905 31.3742C30.2635 31.3965 30.1428 31.446 30.0367 31.5192C30.0253 31.5256 30.0124 31.529 29.9992 31.529C29.9861 31.529 29.9732 31.5256 29.9617 31.5192C29.8556 31.446 29.735 31.3965 29.608 31.3742C29.4867 31.3582 29.3635 31.3641 29.2442 31.3915C29.1602 31.4077 29.0892 31.4215 29.0167 31.4317C28.7258 31.4743 28.4297 31.4659 28.1417 31.4067H28.1372C28.072 31.3938 28.0043 31.4055 27.9471 31.4395C27.89 31.4736 27.8475 31.5276 27.8279 31.5911C27.8082 31.6547 27.8128 31.7233 27.8408 31.7836C27.8687 31.844 27.9181 31.8919 27.9792 31.918C28.3238 32.0664 28.6965 32.1377 29.0715 32.127C29.1645 32.1242 29.2585 32.1162 29.339 32.11C29.421 32.105 29.502 32.1309 29.566 32.1825C29.6881 32.2567 29.8277 32.2971 29.9705 32.2997H30.0265C30.1693 32.2971 30.3089 32.2567 30.431 32.1825C30.4951 32.1308 30.5761 32.105 30.6582 32.11C30.7385 32.1162 30.8332 32.1242 30.9257 32.127C31.3006 32.1377 31.6733 32.0663 32.0177 31.918C32.0746 31.8939 32.1215 31.851 32.1505 31.7965C32.1796 31.742 32.189 31.6791 32.1772 31.6185V31.6185Z" fill="#FAA431"/>
<path d="M30 33.5693C29.8037 33.5681 29.6103 33.5224 29.4342 33.4355C29.3875 33.4157 29.3454 33.3866 29.3102 33.35C29.2751 33.3134 29.2478 33.27 29.2299 33.2225C29.212 33.175 29.2039 33.1244 29.2062 33.0737C29.2084 33.0231 29.2209 32.9734 29.2429 32.9277C29.2649 32.8819 29.296 32.8412 29.3342 32.8078C29.3724 32.7744 29.417 32.7492 29.4653 32.7336C29.5136 32.7179 29.5645 32.7123 29.615 32.7169C29.6656 32.7215 29.7146 32.7364 29.7592 32.7605C29.8331 32.7999 29.9155 32.8205 29.9992 32.8205C30.083 32.8205 30.1654 32.7999 30.2392 32.7605C30.328 32.7228 30.4278 32.7208 30.518 32.7547C30.6082 32.7887 30.6819 32.8561 30.7237 32.943C30.7655 33.0298 30.7723 33.1295 30.7426 33.2212C30.7129 33.3129 30.649 33.3896 30.5642 33.4355C30.3887 33.5222 30.1958 33.5679 30 33.5693V33.5693Z" fill="#FAA431"/>
<path d="M32.018 23.9362C32.3575 23.7859 32.7199 23.6937 33.09 23.6635C33.4463 23.6242 33.8061 23.628 34.1615 23.6747C34.5136 23.7214 34.8624 23.7894 35.2062 23.8785C35.5577 23.9623 35.897 24.0904 36.216 24.26C36.2521 24.2804 36.2793 24.3134 36.2924 24.3528C36.3056 24.3921 36.3037 24.4348 36.2872 24.4729C36.2707 24.5109 36.2407 24.5414 36.203 24.5586C36.1653 24.5758 36.1225 24.5784 36.083 24.566L36.0727 24.5625C35.7605 24.4698 35.4396 24.4094 35.115 24.3822C34.7854 24.3519 34.4543 24.3411 34.1235 24.35C33.794 24.3592 33.4677 24.359 33.1452 24.3725C32.8303 24.3879 32.5167 24.4232 32.2062 24.4782L32.194 24.4807C32.1248 24.4942 32.0531 24.4818 31.9925 24.446C31.9318 24.4101 31.8864 24.3532 31.8648 24.2862C31.8433 24.2191 31.847 24.1464 31.8755 24.0819C31.9039 24.0174 31.9549 23.9656 32.019 23.9362H32.018Z" fill="#FAA431"/>
<path d="M32.3712 26.77C32.5758 26.8379 32.7927 26.8609 33.007 26.8372C33.2438 26.8162 33.4776 26.7693 33.7042 26.6972C33.8202 26.6605 33.9367 26.6222 34.049 26.576C34.1067 26.556 34.4052 26.4232 34.4052 26.4232C34.5678 26.3508 34.7449 26.3166 34.9227 26.3232C35.0214 26.3272 35.1176 26.355 35.2031 26.4042C35.2887 26.4534 35.361 26.5227 35.414 26.606C35.429 26.6331 35.4359 26.6639 35.4341 26.6949C35.4323 26.7258 35.4217 26.7556 35.4036 26.7807C35.3855 26.8059 35.3606 26.8254 35.3319 26.837C35.3032 26.8486 35.2717 26.8518 35.2412 26.8462L35.2042 26.8395C35.1181 26.8237 35.0293 26.833 34.9482 26.8662C34.8586 26.8988 34.7731 26.9418 34.6935 26.9942C34.6685 27.0112 34.5247 27.1022 34.5247 27.1022C34.4592 27.1382 34.3937 27.1772 34.3267 27.2077C34.1923 27.2711 34.0539 27.3253 33.9122 27.3702C33.6225 27.4624 33.3197 27.5062 33.0157 27.5C32.6841 27.5004 32.3619 27.3901 32.1 27.1867C32.0553 27.1491 32.0251 27.0969 32.0149 27.0394C32.0046 26.9818 32.0148 26.9225 32.0438 26.8717C32.0727 26.8209 32.1186 26.7819 32.1733 26.7614C32.2281 26.7409 32.2883 26.7402 32.3435 26.7595L32.3712 26.77Z" fill="#FAA431"/>
<path d="M27.9 27.1867C27.6381 27.3901 27.3158 27.5003 26.9842 27.5C26.6802 27.5059 26.3774 27.4617 26.0877 27.3692C25.9461 27.3243 25.8076 27.27 25.6732 27.2067C25.6062 27.175 25.331 27.0102 25.3065 26.9932C25.2268 26.9408 25.1413 26.8978 25.0517 26.8652C24.9707 26.832 24.8819 26.8227 24.7957 26.8385L24.7587 26.8452C24.7283 26.8507 24.6968 26.8475 24.6681 26.8359C24.6394 26.8243 24.6145 26.8048 24.5964 26.7797C24.5783 26.7545 24.5677 26.7248 24.5658 26.6939C24.5639 26.663 24.5708 26.6321 24.5857 26.605C24.6388 26.5217 24.7112 26.4525 24.7968 26.4032C24.8823 26.354 24.9786 26.3262 25.0772 26.3222C25.2551 26.3156 25.4321 26.3498 25.5947 26.4222C25.5947 26.4222 25.8932 26.555 25.951 26.575C26.0632 26.6215 26.1797 26.6595 26.2957 26.6962C26.5223 26.7683 26.7561 26.8152 26.993 26.8362C27.2073 26.8599 27.4241 26.8369 27.6287 26.769L27.6567 26.7587C27.7119 26.7393 27.7721 26.7399 27.8269 26.7604C27.8817 26.7808 27.9276 26.8198 27.9566 26.8706C27.9857 26.9213 27.9959 26.9807 27.9857 27.0383C27.9755 27.0959 27.9454 27.148 27.9007 27.1857L27.9 27.1867Z" fill="#FAA431"/>
<path d="M27.8145 24.4782C27.5039 24.4232 27.1901 24.3879 26.875 24.3725C26.5525 24.359 26.225 24.3592 25.897 24.35C25.5661 24.3411 25.2351 24.3519 24.9055 24.3822C24.5809 24.4094 24.26 24.4698 23.9477 24.5625L23.9372 24.5657C23.8976 24.5786 23.8547 24.5762 23.8168 24.5591C23.7788 24.542 23.7486 24.5114 23.732 24.4732C23.7154 24.435 23.7136 24.3921 23.727 24.3527C23.7403 24.3132 23.7679 24.2802 23.8042 24.26C24.1232 24.0904 24.4626 23.9623 24.814 23.8785C25.1578 23.7894 25.5067 23.7214 25.8587 23.6747C26.2142 23.628 26.5739 23.6242 26.9302 23.6635C27.3003 23.6936 27.6627 23.7858 28.0022 23.9362C28.0661 23.9658 28.1169 24.0177 28.1451 24.0821C28.1734 24.1465 28.1771 24.219 28.1556 24.286C28.1341 24.353 28.0888 24.4098 28.0283 24.4457C27.9679 24.4816 27.8963 24.4941 27.8272 24.481L27.8145 24.4782Z" fill="#FAA431"/>
<path d="M25.4425 33.945C24.42 32.9375 23.6675 31.39 23.2925 29.465C24.3 29.1275 25.5 29.6675 26.0875 30.7775C26.715 31.9575 26.4225 33.3475 25.4425 33.945Z" fill="#F5DD70"/>
<path d="M36.76 29.475C36.3825 31.395 35.5975 32.94 34.58 33.945C33.5975 33.35 33.305 31.9575 33.9325 30.7775C34.5275 29.6575 35.745 29.1175 36.76 29.475Z" fill="#F5DD70"/>
<path d="M26.059 33.5935C26.0141 33.5934 25.97 33.5811 25.9315 33.5581C25.8929 33.535 25.8613 33.502 25.8399 33.4625C25.8185 33.423 25.8082 33.3785 25.8099 33.3336C25.8117 33.2888 25.8256 33.2452 25.85 33.2075C25.8891 33.1472 25.9247 33.0846 25.9567 33.0203C25.9709 32.9901 25.9909 32.9631 26.0156 32.9408C26.0403 32.9185 26.0693 32.9013 26.1007 32.8903C26.1321 32.8794 26.1655 32.8748 26.1987 32.8769C26.2319 32.8789 26.2644 32.8876 26.2942 32.9024C26.3241 32.9172 26.3506 32.9379 26.3724 32.9631C26.3941 32.9883 26.4106 33.0176 26.4209 33.0493C26.4312 33.081 26.435 33.1144 26.4322 33.1475C26.4294 33.1807 26.42 33.213 26.4045 33.2425C26.3641 33.3241 26.319 33.4032 26.2695 33.4795C26.2467 33.5146 26.2155 33.5434 26.1788 33.5633C26.142 33.5833 26.1008 33.5936 26.059 33.5935V33.5935ZM26.4167 32.4398H26.405C26.3722 32.4382 26.34 32.4303 26.3103 32.4163C26.2806 32.4024 26.2539 32.3827 26.2317 32.3585C26.2096 32.3342 26.1925 32.3058 26.1813 32.275C26.1702 32.2441 26.1652 32.2113 26.1667 32.1785C26.1682 32.145 26.169 32.111 26.169 32.0785C26.169 32.0378 26.169 31.9983 26.166 31.959C26.1643 31.9262 26.1692 31.8933 26.1802 31.8624C26.1913 31.8314 26.2083 31.8029 26.2304 31.7786C26.2749 31.7293 26.3372 31.6998 26.4035 31.6965C26.4698 31.6932 26.5347 31.7163 26.5839 31.7609C26.6331 31.8054 26.6627 31.8677 26.666 31.934C26.6685 31.9828 26.6697 32.0313 26.6695 32.0798C26.6695 32.1203 26.6695 32.1615 26.6667 32.2027C26.6634 32.2668 26.6356 32.3271 26.5891 32.3712C26.5425 32.4153 26.4808 32.4398 26.4167 32.4398V32.4398ZM26.194 31.248C26.145 31.248 26.0971 31.2337 26.0562 31.2068C26.0154 31.1798 25.9833 31.1415 25.964 31.0965C25.9352 31.0285 25.903 30.9613 25.8677 30.8948C25.8369 30.8369 25.8296 30.7693 25.8474 30.7062C25.8653 30.6431 25.9069 30.5894 25.9635 30.5563C26.0194 30.5237 26.0858 30.5144 26.1485 30.5303C26.2112 30.5462 26.2651 30.586 26.2987 30.6413C26.3037 30.6495 26.3122 30.6663 26.3162 30.674C26.3512 30.7395 26.3895 30.819 26.424 30.899C26.4402 30.937 26.4468 30.9785 26.4431 31.0197C26.4394 31.0609 26.4255 31.1005 26.4027 31.135C26.3799 31.1695 26.3489 31.1979 26.3125 31.2174C26.2761 31.237 26.2353 31.2473 26.194 31.2473V31.248ZM25.486 30.253C25.424 30.253 25.3642 30.2301 25.3182 30.1885C25.2632 30.1385 25.2064 30.0916 25.1477 30.0478C25.1215 30.0281 25.0993 30.0034 25.0826 29.9751C25.0659 29.9469 25.0549 29.9156 25.0502 29.8831C25.0456 29.8506 25.0474 29.8175 25.0556 29.7857C25.0637 29.7539 25.078 29.724 25.0977 29.6978C25.1174 29.6715 25.1421 29.6494 25.1704 29.6326C25.1986 29.6159 25.2299 29.6049 25.2624 29.6003C25.2949 29.5956 25.328 29.5974 25.3598 29.6056C25.3916 29.6137 25.4215 29.6281 25.4477 29.6478C25.5185 29.7008 25.5877 29.7573 25.6545 29.8178C25.692 29.8516 25.7183 29.8961 25.7301 29.9452C25.7418 29.9944 25.7383 30.046 25.7202 30.0931C25.702 30.1403 25.67 30.1808 25.6283 30.2094C25.5866 30.238 25.5373 30.2533 25.4867 30.2533L25.486 30.253ZM22.9955 29.588L22.9975 29.5917L22.9955 29.588ZM24.4205 29.678C24.4003 29.678 24.3803 29.6756 24.3607 29.6708C24.2906 29.6535 24.2196 29.6401 24.148 29.6305C24.1146 29.6273 24.0822 29.6174 24.0527 29.6014C24.0232 29.5854 23.9973 29.5636 23.9764 29.5374C23.9555 29.5111 23.9401 29.481 23.9311 29.4486C23.9221 29.4163 23.9197 29.3825 23.9241 29.3493C23.9284 29.316 23.9394 29.284 23.9564 29.255C23.9734 29.2261 23.996 29.2009 24.023 29.1809C24.0499 29.1609 24.0806 29.1465 24.1132 29.1387C24.1458 29.1308 24.1796 29.1295 24.2127 29.135C24.3027 29.1466 24.3919 29.1633 24.48 29.185C24.5393 29.1996 24.5912 29.2354 24.6259 29.2856C24.6606 29.3359 24.6757 29.3971 24.6684 29.4577C24.6611 29.5183 24.6318 29.5742 24.5862 29.6147C24.5405 29.6553 24.4816 29.6777 24.4205 29.6778V29.678Z" fill="#FAA431"/>
<path d="M33.7517 33.4795C33.7022 33.4032 33.6571 33.324 33.6167 33.2425C33.6013 33.213 33.5918 33.1807 33.589 33.1475C33.5862 33.1144 33.59 33.0809 33.6003 33.0493C33.6106 33.0176 33.6271 32.9883 33.6488 32.9631C33.6706 32.9379 33.6972 32.9172 33.727 32.9024C33.7568 32.8876 33.7893 32.8789 33.8225 32.8769C33.8558 32.8748 33.8891 32.8794 33.9205 32.8903C33.952 32.9013 33.9809 32.9185 34.0056 32.9408C34.0303 32.9631 34.0504 32.9901 34.0645 33.0202C34.0966 33.0846 34.1322 33.1471 34.1712 33.2075C34.1896 33.235 34.2022 33.2659 34.2085 33.2984C34.2148 33.3309 34.2146 33.3643 34.2079 33.3967C34.2012 33.4291 34.1881 33.4598 34.1695 33.4871C34.1508 33.5144 34.1269 33.5378 34.0991 33.5558C34.0714 33.5738 34.0403 33.5861 34.0078 33.592C33.9752 33.5979 33.9418 33.5973 33.9095 33.5902C33.8772 33.5831 33.8466 33.5697 33.8195 33.5507C33.7924 33.5317 33.7694 33.5075 33.7517 33.4795V33.4795ZM33.3545 32.2012C33.3527 32.16 33.352 32.1187 33.352 32.0782C33.352 32.0297 33.352 31.9812 33.3552 31.9325C33.3586 31.8662 33.3881 31.8039 33.4373 31.7594C33.4865 31.7148 33.5514 31.6917 33.6177 31.695C33.684 31.6983 33.7463 31.7278 33.7909 31.7771C33.8354 31.8263 33.8586 31.8912 33.8552 31.9575C33.8535 31.9967 33.8522 32.0362 33.8525 32.077C33.8525 32.1107 33.8525 32.1447 33.8545 32.177C33.856 32.2098 33.851 32.2426 33.8399 32.2734C33.8287 32.3043 33.8116 32.3327 33.7895 32.357C33.7674 32.3812 33.7407 32.4009 33.7109 32.4148C33.6812 32.4288 33.649 32.4367 33.6162 32.4382H33.6045C33.5404 32.4383 33.4787 32.4138 33.4322 32.3697C33.3856 32.3256 33.3578 32.2653 33.3545 32.2012ZM33.7295 31.228C33.6993 31.2151 33.6719 31.1964 33.6489 31.1729C33.626 31.1494 33.6078 31.1217 33.5956 31.0912C33.5834 31.0607 33.5772 31.0281 33.5776 30.9952C33.578 30.9624 33.5848 30.9299 33.5977 30.8997C33.6325 30.819 33.6705 30.7395 33.7057 30.6747C33.7095 30.6662 33.7182 30.6497 33.723 30.642C33.7566 30.5868 33.8106 30.5469 33.8733 30.531C33.9359 30.5151 34.0024 30.5245 34.0582 30.557C34.1149 30.5901 34.1565 30.6438 34.1744 30.7069C34.1923 30.77 34.1851 30.8376 34.1542 30.8955C34.1187 30.9622 34.0866 31.0294 34.0577 31.0972C34.0385 31.1422 34.0064 31.1806 33.9655 31.2075C33.9246 31.2345 33.8767 31.2488 33.8277 31.2487C33.7936 31.2488 33.7598 31.2417 33.7285 31.228H33.7295ZM34.35 30.1707C34.3279 30.1464 34.3109 30.1179 34.2999 30.087C34.2888 30.0561 34.284 30.0232 34.2857 29.9904C34.2873 29.9576 34.2954 29.9255 34.3095 29.8958C34.3236 29.8661 34.3434 29.8395 34.3677 29.8175C34.4344 29.757 34.5033 29.7003 34.5745 29.6475C34.6008 29.6278 34.6306 29.6135 34.6624 29.6053C34.6942 29.5972 34.7273 29.5954 34.7598 29.6C34.7923 29.6047 34.8236 29.6157 34.8519 29.6324C34.8801 29.6491 34.9048 29.6712 34.9245 29.6975C34.9442 29.7238 34.9585 29.7536 34.9667 29.7855C34.9748 29.8173 34.9766 29.8503 34.972 29.8829C34.9673 29.9154 34.9563 29.9466 34.9396 29.9749C34.9229 30.0031 34.9008 30.0278 34.8745 30.0475C34.8158 30.0912 34.7589 30.1381 34.7037 30.1882C34.6794 30.2103 34.6509 30.2273 34.62 30.2384C34.5891 30.2494 34.5562 30.2542 34.5234 30.2526C34.4906 30.2509 34.4585 30.2428 34.4288 30.2287C34.3991 30.2147 34.3725 30.1949 34.3505 30.1705L34.35 30.1707ZM37.025 29.5917L37.027 29.588L37.025 29.5917ZM35.3582 29.4875C35.3425 29.4231 35.3529 29.3551 35.3873 29.2984C35.4217 29.2418 35.4771 29.201 35.5415 29.1852C35.6295 29.1636 35.7186 29.1469 35.8085 29.1352C35.8416 29.1298 35.8754 29.1311 35.9079 29.139C35.9405 29.1469 35.9711 29.1613 35.998 29.1813C36.0249 29.2013 36.0475 29.2264 36.0645 29.2553C36.0814 29.2842 36.0924 29.3162 36.0968 29.3494C36.1011 29.3827 36.0988 29.4164 36.0898 29.4487C36.0809 29.481 36.0655 29.5111 36.0447 29.5374C36.0239 29.5636 35.998 29.5854 35.9686 29.6014C35.9392 29.6175 35.9068 29.6275 35.8735 29.6307C35.8018 29.6403 35.7307 29.6538 35.6605 29.671C35.6409 29.6759 35.6209 29.6783 35.6007 29.6782C35.5445 29.6786 35.4898 29.6599 35.4455 29.6253C35.4012 29.5907 35.3698 29.5421 35.3565 29.4875H35.3582Z" fill="#FAA431"/>
<path d="M37.2235 31.6615C37.0873 31.6347 36.946 31.6619 36.8294 31.7372C36.7128 31.8126 36.63 31.9303 36.5985 32.0655L37.3717 37.1967C38.2455 36.6275 38.53 36.1447 38.519 34.8897C38.515 34.3552 37.9402 31.7942 37.2235 31.6615V31.6615Z" fill="#FAA431"/>
<path d="M38.1097 44.4178C38.1097 44.4178 36.8097 41.4975 36.6305 40.656C36.4145 39.638 37.632 37.09 37.632 37.09C37.9573 36.1179 37.9404 35.0637 37.584 34.1025C37.2512 33.2055 36.83 32.0938 36.5365 31.2378C36.4944 31.1139 36.4116 31.0081 36.3015 30.9374C36.1915 30.8668 36.0607 30.8355 35.9306 30.8488C35.8006 30.8621 35.6788 30.9191 35.5853 31.0104C35.4918 31.1018 35.432 31.2222 35.4157 31.352C35.4157 31.3603 35.414 31.3685 35.4132 31.377C35.3702 31.877 35.6925 33.9158 35.8355 34.5565C35.9735 35.174 35.0355 36.0255 34.5912 36.6815C33.17 38.7735 33.8552 39.9725 34.1515 40.6565C34.4047 41.2413 35.1062 44.4193 35.1062 44.4193L38.1097 44.4178Z" fill="#FFE77E"/>
<path d="M22.7765 31.6615C22.0597 31.7943 21.485 34.3552 21.4805 34.8897C21.4697 36.1447 21.754 36.6275 22.6277 37.1968L23.4 32.0655C23.3684 31.9306 23.2859 31.8132 23.1696 31.7379C23.0534 31.6625 22.9125 31.6352 22.7765 31.6615V31.6615Z" fill="#FAA431"/>
<path d="M21.8903 44.4178C21.8903 44.4178 23.1903 41.4975 23.3695 40.656C23.5855 39.638 22.368 37.09 22.368 37.09C22.0427 36.1179 22.0596 35.0637 22.416 34.1025C22.7488 33.2055 23.17 32.0938 23.4635 31.2378C23.5056 31.1139 23.5884 31.0081 23.6985 30.9374C23.8085 30.8668 23.9393 30.8355 24.0694 30.8488C24.1994 30.8621 24.3212 30.9191 24.4147 31.0104C24.5082 31.1018 24.568 31.2222 24.5843 31.352C24.5843 31.3603 24.586 31.3685 24.5868 31.377C24.6298 31.877 24.3075 33.9158 24.1645 34.5565C24.0265 35.174 24.9645 36.0255 25.4088 36.6815C26.83 38.7735 26.1448 39.9725 25.8485 40.6565C25.5953 41.2413 24.8938 44.4193 24.8938 44.4193L21.8903 44.4178Z" fill="#FFE77E"/>
<defs>
<radialGradient id="paint0_radial_17_1461" cx="0" cy="0" r="1" gradientUnits="userSpaceOnUse" gradientTransform="translate(30 30) rotate(90) scale(30)">
<stop stop-color="white" stop-opacity="0.5"/>
<stop offset="1" stop-color="#FAD42C"/>
</radialGradient>
</defs>
</svg>
