<svg width="33" height="33" viewBox="0 0 33 33" fill="none" xmlns="http://www.w3.org/2000/svg">
<mask id="path-1-outside-1_871_8270" maskUnits="userSpaceOnUse" x="0" y="17.5312" width="33" height="15" fill="black">
<rect fill="white" y="17.5312" width="33" height="15"/>
<path d="M29.3594 26.7812V20.0781C29.3589 19.668 29.1958 19.2748 28.9058 18.9848C28.6158 18.6948 28.2226 18.5317 27.8125 18.5312H5.125C4.71488 18.5317 4.3217 18.6948 4.0317 18.9848C3.7417 19.2748 3.57858 19.668 3.57812 20.0781V26.7812H1V29.3594C1.00047 29.7695 1.16359 30.1627 1.45359 30.4527C1.74358 30.7427 2.13676 30.9058 2.54688 30.9062H7.27619C7.38277 31.2078 7.58023 31.4689 7.84138 31.6536C8.10253 31.8383 8.41452 31.9375 8.73438 31.9375C9.05423 31.9375 9.36622 31.8383 9.62737 31.6536C9.88852 31.4689 10.086 31.2078 10.1926 30.9062H22.2293C22.3359 31.2078 22.5334 31.4689 22.7945 31.6536C23.0557 31.8383 23.3676 31.9375 23.6875 31.9375C24.0074 31.9375 24.3193 31.8383 24.5805 31.6536C24.8416 31.4689 25.0391 31.2078 25.1457 30.9062H30.3906C30.8007 30.9058 31.1939 30.7427 31.4839 30.4527C31.7739 30.1627 31.937 29.7695 31.9375 29.3594V26.7812H29.3594ZM23.1719 26.7812V23.6875H24.2031V25.2344H25.2344V23.6875H28.3281V26.7812H23.1719ZM12.8594 21.1094V19.5625H15.9531V22.6562H10.7969V19.5625H11.8281V21.1094H12.8594ZM19.0469 21.1094V19.5625H22.1406V22.6562H16.9844V19.5625H18.0156V21.1094H19.0469ZM11.8281 23.6875V25.2344H12.8594V23.6875H15.9531V26.7812H10.7969V23.6875H11.8281ZM16.9844 23.6875H18.0156V25.2344H19.0469V23.6875H22.1406V26.7812H16.9844V23.6875ZM28.3281 20.0781V22.6562H23.1719V19.5625H24.2031V21.1094H25.2344V19.5625H27.8125C27.9492 19.5627 28.0803 19.617 28.1769 19.7137C28.2736 19.8104 28.328 19.9414 28.3281 20.0781ZM5.125 19.5625H5.64062V21.1094H6.67188V19.5625H9.76562V22.6562H4.60938V20.0781C4.60953 19.9414 4.66391 19.8104 4.76057 19.7137C4.85724 19.617 4.9883 19.5627 5.125 19.5625ZM4.60938 23.6875H5.64062V25.2344H6.67188V23.6875H9.76562V26.7812H4.60938V23.6875ZM8.73438 30.9062C8.63239 30.9062 8.5327 30.876 8.44791 30.8194C8.36311 30.7627 8.29703 30.6822 8.258 30.5879C8.21897 30.4937 8.20876 30.3901 8.22866 30.29C8.24855 30.19 8.29766 30.0981 8.36977 30.026C8.44188 29.9539 8.53376 29.9048 8.63378 29.8849C8.7338 29.865 8.83748 29.8752 8.9317 29.9143C9.02591 29.9533 9.10644 30.0194 9.1631 30.1042C9.21976 30.189 9.25 30.2886 9.25 30.3906C9.24984 30.5273 9.19547 30.6584 9.0988 30.7551C9.00214 30.8517 8.87108 30.9061 8.73438 30.9062ZM23.6875 30.9062C23.5855 30.9062 23.4858 30.876 23.401 30.8194C23.3162 30.7627 23.2502 30.6822 23.2111 30.5879C23.1721 30.4937 23.1619 30.3901 23.1818 30.29C23.2017 30.19 23.2508 30.0981 23.3229 30.026C23.395 29.9539 23.4869 29.9048 23.5869 29.8849C23.6869 29.865 23.7906 29.8752 23.8848 29.9143C23.979 29.9533 24.0596 30.0194 24.1162 30.1042C24.1729 30.189 24.2031 30.2886 24.2031 30.3906C24.203 30.5273 24.1486 30.6584 24.0519 30.7551C23.9553 30.8517 23.8242 30.9061 23.6875 30.9062ZM30.9062 29.3594C30.9061 29.4961 30.8517 29.6271 30.7551 29.7238C30.6584 29.8205 30.5273 29.8748 30.3906 29.875H25.1457C25.0391 29.5734 24.8416 29.3123 24.5805 29.1276C24.3193 28.9429 24.0074 28.8437 23.6875 28.8437C23.3676 28.8437 23.0557 28.9429 22.7945 29.1276C22.5334 29.3123 22.3359 29.5734 22.2293 29.875H10.1926C10.086 29.5734 9.88852 29.3123 9.62737 29.1276C9.36622 28.9429 9.05423 28.8437 8.73438 28.8437C8.41452 28.8437 8.10253 28.9429 7.84138 29.1276C7.58023 29.3123 7.38277 29.5734 7.27619 29.875H2.54688C2.41017 29.8748 2.27911 29.8205 2.18245 29.7238C2.08578 29.6271 2.03141 29.4961 2.03125 29.3594V27.8125H30.9062V29.3594Z"/>
</mask>
<path d="M29.3594 26.7812V20.0781C29.3589 19.668 29.1958 19.2748 28.9058 18.9848C28.6158 18.6948 28.2226 18.5317 27.8125 18.5312H5.125C4.71488 18.5317 4.3217 18.6948 4.0317 18.9848C3.7417 19.2748 3.57858 19.668 3.57812 20.0781V26.7812H1V29.3594C1.00047 29.7695 1.16359 30.1627 1.45359 30.4527C1.74358 30.7427 2.13676 30.9058 2.54688 30.9062H7.27619C7.38277 31.2078 7.58023 31.4689 7.84138 31.6536C8.10253 31.8383 8.41452 31.9375 8.73438 31.9375C9.05423 31.9375 9.36622 31.8383 9.62737 31.6536C9.88852 31.4689 10.086 31.2078 10.1926 30.9062H22.2293C22.3359 31.2078 22.5334 31.4689 22.7945 31.6536C23.0557 31.8383 23.3676 31.9375 23.6875 31.9375C24.0074 31.9375 24.3193 31.8383 24.5805 31.6536C24.8416 31.4689 25.0391 31.2078 25.1457 30.9062H30.3906C30.8007 30.9058 31.1939 30.7427 31.4839 30.4527C31.7739 30.1627 31.937 29.7695 31.9375 29.3594V26.7812H29.3594ZM23.1719 26.7812V23.6875H24.2031V25.2344H25.2344V23.6875H28.3281V26.7812H23.1719ZM12.8594 21.1094V19.5625H15.9531V22.6562H10.7969V19.5625H11.8281V21.1094H12.8594ZM19.0469 21.1094V19.5625H22.1406V22.6562H16.9844V19.5625H18.0156V21.1094H19.0469ZM11.8281 23.6875V25.2344H12.8594V23.6875H15.9531V26.7812H10.7969V23.6875H11.8281ZM16.9844 23.6875H18.0156V25.2344H19.0469V23.6875H22.1406V26.7812H16.9844V23.6875ZM28.3281 20.0781V22.6562H23.1719V19.5625H24.2031V21.1094H25.2344V19.5625H27.8125C27.9492 19.5627 28.0803 19.617 28.1769 19.7137C28.2736 19.8104 28.328 19.9414 28.3281 20.0781ZM5.125 19.5625H5.64062V21.1094H6.67188V19.5625H9.76562V22.6562H4.60938V20.0781C4.60953 19.9414 4.66391 19.8104 4.76057 19.7137C4.85724 19.617 4.9883 19.5627 5.125 19.5625ZM4.60938 23.6875H5.64062V25.2344H6.67188V23.6875H9.76562V26.7812H4.60938V23.6875ZM8.73438 30.9062C8.63239 30.9062 8.5327 30.876 8.44791 30.8194C8.36311 30.7627 8.29703 30.6822 8.258 30.5879C8.21897 30.4937 8.20876 30.3901 8.22866 30.29C8.24855 30.19 8.29766 30.0981 8.36977 30.026C8.44188 29.9539 8.53376 29.9048 8.63378 29.8849C8.7338 29.865 8.83748 29.8752 8.9317 29.9143C9.02591 29.9533 9.10644 30.0194 9.1631 30.1042C9.21976 30.189 9.25 30.2886 9.25 30.3906C9.24984 30.5273 9.19547 30.6584 9.0988 30.7551C9.00214 30.8517 8.87108 30.9061 8.73438 30.9062ZM23.6875 30.9062C23.5855 30.9062 23.4858 30.876 23.401 30.8194C23.3162 30.7627 23.2502 30.6822 23.2111 30.5879C23.1721 30.4937 23.1619 30.3901 23.1818 30.29C23.2017 30.19 23.2508 30.0981 23.3229 30.026C23.395 29.9539 23.4869 29.9048 23.5869 29.8849C23.6869 29.865 23.7906 29.8752 23.8848 29.9143C23.979 29.9533 24.0596 30.0194 24.1162 30.1042C24.1729 30.189 24.2031 30.2886 24.2031 30.3906C24.203 30.5273 24.1486 30.6584 24.0519 30.7551C23.9553 30.8517 23.8242 30.9061 23.6875 30.9062ZM30.9062 29.3594C30.9061 29.4961 30.8517 29.6271 30.7551 29.7238C30.6584 29.8205 30.5273 29.8748 30.3906 29.875H25.1457C25.0391 29.5734 24.8416 29.3123 24.5805 29.1276C24.3193 28.9429 24.0074 28.8437 23.6875 28.8437C23.3676 28.8437 23.0557 28.9429 22.7945 29.1276C22.5334 29.3123 22.3359 29.5734 22.2293 29.875H10.1926C10.086 29.5734 9.88852 29.3123 9.62737 29.1276C9.36622 28.9429 9.05423 28.8437 8.73438 28.8437C8.41452 28.8437 8.10253 28.9429 7.84138 29.1276C7.58023 29.3123 7.38277 29.5734 7.27619 29.875H2.54688C2.41017 29.8748 2.27911 29.8205 2.18245 29.7238C2.08578 29.6271 2.03141 29.4961 2.03125 29.3594V27.8125H30.9062V29.3594Z" fill="#E35000"/>
<path d="M29.3594 26.7812V20.0781C29.3589 19.668 29.1958 19.2748 28.9058 18.9848C28.6158 18.6948 28.2226 18.5317 27.8125 18.5312H5.125C4.71488 18.5317 4.3217 18.6948 4.0317 18.9848C3.7417 19.2748 3.57858 19.668 3.57812 20.0781V26.7812H1V29.3594C1.00047 29.7695 1.16359 30.1627 1.45359 30.4527C1.74358 30.7427 2.13676 30.9058 2.54688 30.9062H7.27619C7.38277 31.2078 7.58023 31.4689 7.84138 31.6536C8.10253 31.8383 8.41452 31.9375 8.73438 31.9375C9.05423 31.9375 9.36622 31.8383 9.62737 31.6536C9.88852 31.4689 10.086 31.2078 10.1926 30.9062H22.2293C22.3359 31.2078 22.5334 31.4689 22.7945 31.6536C23.0557 31.8383 23.3676 31.9375 23.6875 31.9375C24.0074 31.9375 24.3193 31.8383 24.5805 31.6536C24.8416 31.4689 25.0391 31.2078 25.1457 30.9062H30.3906C30.8007 30.9058 31.1939 30.7427 31.4839 30.4527C31.7739 30.1627 31.937 29.7695 31.9375 29.3594V26.7812H29.3594ZM23.1719 26.7812V23.6875H24.2031V25.2344H25.2344V23.6875H28.3281V26.7812H23.1719ZM12.8594 21.1094V19.5625H15.9531V22.6562H10.7969V19.5625H11.8281V21.1094H12.8594ZM19.0469 21.1094V19.5625H22.1406V22.6562H16.9844V19.5625H18.0156V21.1094H19.0469ZM11.8281 23.6875V25.2344H12.8594V23.6875H15.9531V26.7812H10.7969V23.6875H11.8281ZM16.9844 23.6875H18.0156V25.2344H19.0469V23.6875H22.1406V26.7812H16.9844V23.6875ZM28.3281 20.0781V22.6562H23.1719V19.5625H24.2031V21.1094H25.2344V19.5625H27.8125C27.9492 19.5627 28.0803 19.617 28.1769 19.7137C28.2736 19.8104 28.328 19.9414 28.3281 20.0781ZM5.125 19.5625H5.64062V21.1094H6.67188V19.5625H9.76562V22.6562H4.60938V20.0781C4.60953 19.9414 4.66391 19.8104 4.76057 19.7137C4.85724 19.617 4.9883 19.5627 5.125 19.5625ZM4.60938 23.6875H5.64062V25.2344H6.67188V23.6875H9.76562V26.7812H4.60938V23.6875ZM8.73438 30.9062C8.63239 30.9062 8.5327 30.876 8.44791 30.8194C8.36311 30.7627 8.29703 30.6822 8.258 30.5879C8.21897 30.4937 8.20876 30.3901 8.22866 30.29C8.24855 30.19 8.29766 30.0981 8.36977 30.026C8.44188 29.9539 8.53376 29.9048 8.63378 29.8849C8.7338 29.865 8.83748 29.8752 8.9317 29.9143C9.02591 29.9533 9.10644 30.0194 9.1631 30.1042C9.21976 30.189 9.25 30.2886 9.25 30.3906C9.24984 30.5273 9.19547 30.6584 9.0988 30.7551C9.00214 30.8517 8.87108 30.9061 8.73438 30.9062ZM23.6875 30.9062C23.5855 30.9062 23.4858 30.876 23.401 30.8194C23.3162 30.7627 23.2502 30.6822 23.2111 30.5879C23.1721 30.4937 23.1619 30.3901 23.1818 30.29C23.2017 30.19 23.2508 30.0981 23.3229 30.026C23.395 29.9539 23.4869 29.9048 23.5869 29.8849C23.6869 29.865 23.7906 29.8752 23.8848 29.9143C23.979 29.9533 24.0596 30.0194 24.1162 30.1042C24.1729 30.189 24.2031 30.2886 24.2031 30.3906C24.203 30.5273 24.1486 30.6584 24.0519 30.7551C23.9553 30.8517 23.8242 30.9061 23.6875 30.9062ZM30.9062 29.3594C30.9061 29.4961 30.8517 29.6271 30.7551 29.7238C30.6584 29.8205 30.5273 29.8748 30.3906 29.875H25.1457C25.0391 29.5734 24.8416 29.3123 24.5805 29.1276C24.3193 28.9429 24.0074 28.8437 23.6875 28.8437C23.3676 28.8437 23.0557 28.9429 22.7945 29.1276C22.5334 29.3123 22.3359 29.5734 22.2293 29.875H10.1926C10.086 29.5734 9.88852 29.3123 9.62737 29.1276C9.36622 28.9429 9.05423 28.8437 8.73438 28.8437C8.41452 28.8437 8.10253 28.9429 7.84138 29.1276C7.58023 29.3123 7.38277 29.5734 7.27619 29.875H2.54688C2.41017 29.8748 2.27911 29.8205 2.18245 29.7238C2.08578 29.6271 2.03141 29.4961 2.03125 29.3594V27.8125H30.9062V29.3594Z" stroke="#E35000" stroke-width="0.4" mask="url(#path-1-outside-1_871_8270)"/>
<path d="M4.42401 15.5902L4.32865 15.6203L4.35874 15.7156L4.66914 16.6994L4.69923 16.7948L4.7946 16.7647L12.0165 14.4861L12.1119 14.456L12.0818 14.3607L11.7714 13.3768L11.7413 13.2815L11.6459 13.3116L4.42401 15.5902Z" fill="#E35000" stroke="#E35000" stroke-width="0.2"/>
<path d="M1.84454 16.4046L1.74918 16.4347L1.77927 16.5301L2.08967 17.5139L2.11976 17.6093L2.21513 17.5792L3.76267 17.0909L3.85803 17.0608L3.82794 16.9655L3.51754 15.9816L3.48745 15.8863L3.39208 15.9164L1.84454 16.4046Z" fill="#E35000" stroke="#E35000" stroke-width="0.2"/>
<path d="M12.7839 7.15295L10.3222 3.46038C10.1569 3.21236 10.062 2.92411 10.0476 2.62638C10.0332 2.32864 10.0999 2.03258 10.2405 1.76977C10.3812 1.50696 10.5905 1.28725 10.8462 1.13408C11.1019 0.9809 11.3944 0.899999 11.6925 0.9H12.5156H12.5158C12.8719 0.900733 13.2182 1.0162 13.5035 1.22927L13.5037 1.22939L18.9554 5.31818L23.1118 4.08251C23.1118 4.0825 23.1118 4.0825 23.1118 4.08249C23.807 3.87542 24.5453 3.86017 25.2484 4.03838C25.9515 4.21659 26.5934 4.58162 27.106 5.09483M12.7839 7.15295L16.6893 16.5138L16.7827 16.5496L19.4137 9.78415M12.7839 7.15295L6.56955 9.00047L6.56947 9.0005C6.49772 9.02189 6.42153 9.02348 6.34896 9.00509C6.27639 8.9867 6.21014 8.94902 6.15725 8.89604L6.15719 8.89599L5.34691 8.0857C5.34689 8.08569 5.34688 8.08567 5.34686 8.08566L12.7839 7.15295ZM27.106 5.09483L27.0353 5.1655L27.106 5.09479C27.106 5.09481 27.106 5.09482 27.106 5.09483ZM27.106 5.09483C27.2994 5.28822 27.4394 5.52843 27.5123 5.79203C27.5852 6.05565 27.5885 6.33366 27.5219 6.59894C27.4553 6.86422 27.3211 7.10772 27.1324 7.30567C26.9437 7.50363 26.7068 7.64929 26.445 7.72845L26.4442 7.72871L19.4137 9.78415M19.4137 9.78415L19.4316 9.73824L19.3384 9.70199L19.3664 9.79797L19.4137 9.78415ZM15.2472 17.6C15.2473 17.6 15.2475 17.6 15.2476 17.6C15.5798 17.6013 15.9045 17.5016 16.1786 17.3141C16.4528 17.1265 16.6635 16.86 16.7826 16.5498L13.0327 15.7344C13.0013 15.9538 13.0175 16.1773 13.0801 16.3899C13.1427 16.6025 13.2502 16.7992 13.3954 16.9666C13.5406 17.1341 13.7201 17.2683 13.9217 17.3603C14.1234 17.4524 14.3424 17.5 14.564 17.5H15.2476L15.2472 17.6ZM15.2472 17.6L14.564 17.6C14.3281 17.6 14.0949 17.5493 13.8802 17.4513C13.6656 17.3534 13.4745 17.2104 13.3199 17.0322C13.1653 16.8539 13.0508 16.6445 12.9842 16.4182C12.9175 16.1918 12.9003 15.9538 12.9337 15.7202L13.5077 11.7022M15.2472 17.6L13.5077 11.7022M13.5077 11.7022L6.40573 13.7868C6.4056 13.7868 6.40547 13.7869 6.40535 13.7869C6.12073 13.8728 5.81814 13.8797 5.5299 13.8069C5.2416 13.7341 4.97849 13.5844 4.76869 13.3737L13.5077 11.7022ZM4.18218 8.73438H2.974C2.87172 8.73304 2.77144 8.76274 2.6864 8.81957C2.60705 8.87258 2.54444 8.94688 2.50562 9.03375L4.18218 8.73438ZM4.18218 8.73438C4.24993 8.73419 4.31704 8.74744 4.37962 8.77337C4.44221 8.79929 4.49904 8.83737 4.54681 8.88541L4.18218 8.73438ZM1.80948 10.4145L4.76853 13.3735L4.77448 7.82011C4.58672 7.74233 4.38541 7.70257 4.18218 7.70312V7.60313H4.18209C4.18203 7.60313 4.18197 7.60313 4.18191 7.60313L2.974 7.60313C2.64828 7.60312 2.32988 7.69971 2.05905 7.88066C1.78822 8.06162 1.57714 8.31883 1.45249 8.61975C1.32784 8.92068 1.29522 9.25181 1.35877 9.57127C1.42231 9.89073 1.57916 10.1842 1.80948 10.4145L1.88019 10.3438L1.80948 10.4145ZM18.7575 6.7088L18.803 6.64802L23.4627 5.26271L23.4628 5.26269C23.9453 5.11896 24.4578 5.10837 24.9459 5.23207C25.4339 5.35577 25.8795 5.60914 26.2353 5.96537L26.2354 5.96539C26.2781 6.0081 26.309 6.06109 26.3253 6.11926C26.3415 6.17742 26.3425 6.23879 26.3281 6.29744C26.3137 6.35609 26.2844 6.41003 26.2431 6.45407C26.202 6.49788 26.1503 6.53041 26.0931 6.54856C26.0928 6.54865 26.0925 6.54874 26.0922 6.54884L19.9766 8.33677L20.1362 7.92624L20.1725 7.83304L20.0793 7.7968L19.1181 7.42305L19.0249 7.38681L18.9887 7.48L15.635 16.1038L15.6348 16.1042C15.6048 16.1823 15.5518 16.2495 15.4827 16.2967C15.4136 16.344 15.3318 16.3691 15.2481 16.3687H15.2476H14.564C14.5045 16.3688 14.4456 16.356 14.3914 16.3312C14.3373 16.3065 14.289 16.2704 14.25 16.2255C14.211 16.1805 14.1821 16.1276 14.1653 16.0705C14.1485 16.0134 14.1441 15.9533 14.1525 15.8943L15.0156 9.85269L15.0298 9.75369L14.9308 9.73955L13.9099 9.59371L13.8109 9.57957L13.7968 9.67856L13.699 10.3629L6.05422 12.6068L6.05337 12.607C5.98142 12.6289 5.9049 12.6307 5.83198 12.6124C5.75905 12.5941 5.69247 12.5563 5.63935 12.5031L5.6393 12.5031L2.68009 9.54388L2.68009 9.54388L2.67916 9.54297C2.62038 9.4857 2.58034 9.41196 2.56434 9.33148C2.54833 9.25099 2.5571 9.16755 2.5895 9.09215L2.57851 9.08743L2.5905 9.08974C2.62091 9.01352 2.67372 8.94831 2.74195 8.90272C2.81019 8.85712 2.89064 8.83329 2.97269 8.83437L2.97269 8.83437H2.974L4.18218 8.83438L4.18246 8.83437C4.23698 8.83423 4.29099 8.84489 4.34136 8.86576C4.39173 8.88662 4.43746 8.91727 4.47591 8.95592L4.4761 8.95612L5.28653 9.76655C5.49623 9.97651 5.7588 10.1258 6.04645 10.1987C6.33407 10.2716 6.63605 10.2654 6.92042 10.1807C6.92044 10.1807 6.92046 10.1807 6.92047 10.1807L18.7124 6.67497L18.7575 6.7088ZM11.3467 2.77742C11.3049 2.71482 11.281 2.64207 11.2774 2.56693C11.2737 2.49179 11.2906 2.41707 11.3261 2.35075C11.3616 2.28442 11.4144 2.22897 11.4789 2.19032C11.5435 2.15166 11.6173 2.13125 11.6925 2.13125H12.5155C12.6055 2.13146 12.693 2.16066 12.7651 2.21451L17.4859 5.75507L14.0189 6.7858L11.3467 2.77742Z" fill="#E35000" stroke="#E35000" stroke-width="0.2"/>
<path d="M4.94122 4.13315L4.84586 4.16324L4.87595 4.2586L5.18635 5.24242L5.21644 5.33778L5.31181 5.30769L8.92277 4.16839L9.01814 4.1383L8.98805 4.04293L8.67764 3.05912L8.64755 2.96375L8.55219 2.99384L4.94122 4.13315Z" fill="#E35000" stroke="#E35000" stroke-width="0.2"/>
<path d="M2.36188 4.9476L2.26651 4.97769L2.2966 5.07306L2.60701 6.05687L2.6371 6.15224L2.73246 6.12215L4.28 5.63388L4.37537 5.60379L4.34528 5.50842L4.03487 4.52461L4.00478 4.42924L3.90942 4.45933L2.36188 4.9476Z" fill="#E35000" stroke="#E35000" stroke-width="0.2"/>
<path d="M22.4789 10.4339L22.3836 10.464L22.4137 10.5594L22.7241 11.5432L22.7542 11.6386L22.8495 11.6085L26.8044 10.3607L26.8998 10.3306L26.8697 10.2352L26.5593 9.25139L26.5292 9.15603L26.4338 9.18612L22.4789 10.4339Z" fill="#E35000" stroke="#E35000" stroke-width="0.2"/>
<path d="M19.8997 11.2484L19.8044 11.2785L19.8344 11.3738L20.1449 12.3577L20.1749 12.453L20.2703 12.4229L21.8178 11.9347L21.9132 11.9046L21.8831 11.8092L21.5727 10.8254L21.5426 10.73L21.4473 10.7601L19.8997 11.2484Z" fill="#E35000" stroke="#E35000" stroke-width="0.2"/>
<path d="M21.4485 1.9642L21.3532 1.99429L21.3833 2.08966L21.6937 3.07347L21.7238 3.16884L21.8191 3.13875L22.8508 2.81323L22.9462 2.78314L22.9161 2.68777L22.6057 1.70396L22.5756 1.6086L22.4803 1.63868L21.4485 1.9642Z" fill="#E35000" stroke="#E35000" stroke-width="0.2"/>
<path d="M28.6704 2.48081L28.575 2.5109L28.6051 2.60626L28.9155 3.59007L28.9456 3.68544L29.0409 3.65535L30.0726 3.32983L30.168 3.29974L30.1379 3.20438L29.8275 2.22056L29.7974 2.1252L29.7021 2.15529L28.6704 2.48081Z" fill="#E35000" stroke="#E35000" stroke-width="0.2"/>
<path d="M29.1854 7.44858L29.09 7.47867L29.1201 7.57403L29.4305 8.55785L29.4606 8.65321L29.5559 8.62312L30.5877 8.2976L30.683 8.26751L30.6529 8.17215L30.3425 7.18834L30.3124 7.09297L30.2171 7.12306L29.1854 7.44858Z" fill="#E35000" stroke="#E35000" stroke-width="0.2"/>
<path d="M18.8676 16.3957L18.7719 16.4248L18.8011 16.5205L19.1013 17.507L19.1304 17.6027L19.2261 17.5735L29.8582 14.3377L29.3034 15.7247L29.2662 15.8176L29.3591 15.8547L30.3166 16.2377L30.4094 16.2748L30.4466 16.182L31.6693 13.1251L31.7064 13.0323L31.6136 12.9951L28.5567 11.7724L28.4639 11.7352L28.4267 11.8281L28.0437 12.7856L28.0066 12.8785L28.0995 12.9156L29.0512 13.2963L18.8676 16.3957Z" fill="#E35000" stroke="#E35000" stroke-width="0.2"/>
</svg>
