<svg width="33" height="21" viewBox="0 0 33 21" fill="none" xmlns="http://www.w3.org/2000/svg">
<path d="M20.8533 9.29345L20.8546 9.29453C23.0927 11.1051 25.4088 12.9788 26.0563 14.3287C26.5127 15.2761 26.2955 16.3266 25.5061 17.0017C25.04 17.4018 24.4763 17.5957 23.929 17.5668C23.731 18.0632 23.3323 18.4881 22.7809 18.7658C22.2172 19.049 21.5971 19.1302 21.0553 19.0147M20.8533 9.29345L6.14684 13.502C6.75649 14.139 7.38501 14.7956 7.80861 15.1509C10.3689 17.2945 13.4461 19.6087 14.0593 20.0115M20.8533 9.29345C19.6048 8.28417 18.425 7.32995 17.6729 6.57784L20.8533 9.29345ZM21.0553 19.0147C20.7638 19.6059 20.2496 20.094 19.624 20.336M21.0553 19.0147L21.0449 19.0636C21.0575 19.0662 21.0702 19.0688 21.0828 19.0713M21.0553 19.0147L21.1002 19.0368C21.0945 19.0483 21.0887 19.0598 21.0828 19.0713M19.624 20.336C19.0946 20.5423 18.5446 20.5409 18.0606 20.3525C17.699 20.6563 17.1778 20.8117 16.5 20.8117C15.6557 20.8117 14.5654 20.3443 14.0593 20.0115M19.624 20.336L19.6421 20.3826M19.624 20.336L19.6421 20.3826M14.0593 20.0115L14.0319 20.0533C14.0319 20.0533 14.0319 20.0533 14.0319 20.0533M14.0593 20.0115L14.0319 20.0533M6.09913 13.5245L6.11286 13.5388C6.72091 14.1741 7.35076 14.8321 7.77648 15.1892L7.77651 15.1892C10.3373 17.3333 13.4163 19.6489 14.0319 20.0533M6.09913 13.5245L19.642 20.3826C19.1114 20.5893 18.5593 20.5922 18.07 20.4096C17.6975 20.7111 17.171 20.8617 16.5 20.8617C16.0698 20.8617 15.58 20.7429 15.1359 20.5835C14.6916 20.4239 14.2888 20.2222 14.0319 20.0533M6.09913 13.5245C6.0489 13.4721 5.99923 13.4203 5.95034 13.3692C5.55477 12.9564 5.20961 12.5961 5.02223 12.4377L6.09913 13.5245ZM18.3397 18.9294C18.6133 19.1797 18.9185 19.1315 19.1289 19.0518L18.3397 18.9294ZM18.3397 18.9294C18.1692 18.7754 17.9326 18.7162 17.7113 18.7699L18.3397 18.9294ZM19.111 19.0051C19.5299 18.8425 19.8509 18.4252 19.8904 17.994L19.8904 17.9938C19.9169 17.7139 20.0997 17.4718 20.3626 17.3729L20.3628 17.3728C20.6249 17.2756 20.9212 17.3315 21.1278 17.5233C21.2008 17.591 21.3439 17.6393 21.5293 17.6409C21.7126 17.6426 21.9295 17.5984 22.1424 17.4906L22.1426 17.4905C22.2265 17.4485 22.3637 17.3676 22.4737 17.2461C22.583 17.1253 22.6633 16.9669 22.6419 16.7664C22.611 16.4803 22.7495 16.2015 22.9973 16.054C23.2439 15.9064 23.555 15.9169 23.7937 16.0804L23.7942 16.0807C23.8802 16.141 24.0084 16.1588 24.153 16.1302C24.2966 16.1019 24.45 16.0289 24.5799 15.9174L24.58 15.9173C24.6689 15.8415 24.7768 15.7227 24.8327 15.5618C24.8879 15.4027 24.894 15.1977 24.7723 14.9444C24.6466 14.6829 24.4106 14.3703 24.0926 14.0212C23.7751 13.6728 23.3784 13.2906 22.934 12.8903C22.0459 12.0904 20.9701 11.2202 19.9601 10.4033L19.9569 10.4007L19.111 19.0051ZM19.111 19.0051C18.9086 19.0818 18.6267 19.1242 18.3734 18.8925L18.3732 18.8923C18.1904 18.7272 17.9369 18.6638 17.6995 18.7213L17.6994 18.7213C17.4592 18.7802 17.2659 18.9542 17.1818 19.1856M19.111 19.0051L17.1818 19.1856M17.1818 19.1856C17.1818 19.1855 17.1819 19.1855 17.1819 19.1854L17.1819 19.1852L17.2287 19.203L17.1817 19.1859C17.1817 19.1858 17.1818 19.1857 17.1818 19.1856ZM17.1818 19.1856C17.1754 19.2024 17.1689 19.2194 17.1546 19.2381C17.1404 19.2567 17.1165 19.2792 17.0732 19.301C16.9852 19.3456 16.8188 19.3868 16.4999 19.3868C16.2796 19.3868 15.9656 19.3117 15.6537 19.2016C15.3426 19.0917 15.0401 18.9493 14.8432 18.8189L14.8431 18.8188M17.1818 19.1856L14.8431 18.8188M19.6421 20.3826C20.2677 20.1406 20.7833 19.6577 21.0828 19.0713M19.6421 20.3826L21.0828 19.0713M21.0828 19.0713C21.6273 19.1777 22.2433 19.0918 22.8034 18.8105L22.8034 18.8105C23.3523 18.534 23.7547 18.113 23.962 17.6183C24.5117 17.6378 25.0736 17.4389 25.5387 17.0396C26.3455 16.3496 26.5674 15.2746 26.1013 14.3071C25.7729 13.6224 25.025 12.8106 24.0852 11.947C23.1444 11.0826 22.0051 10.1609 20.8869 9.2563L20.8847 9.25457L20.8847 9.25456C19.6353 8.24458 18.458 7.29228 17.7083 6.54249C17.5059 6.33881 17.2036 6.27409 16.9369 6.36991L16.9368 6.36995C16.4924 6.53087 16.2102 6.65657 15.9891 6.75505C15.9788 6.75964 15.9687 6.76417 15.9586 6.76864L15.9585 6.76869L15.9575 6.76914C15.7855 6.84621 15.6741 6.89611 15.5484 6.93306C15.423 6.96994 15.2817 6.99431 15.0513 7.01755C14.8317 7.03966 14.634 7.15764 14.5115 7.34061L14.5115 7.34062C14.0304 8.05992 13.5449 8.38309 13.1022 8.50176C12.6586 8.62065 12.2499 8.53649 11.9179 8.42516L11.9178 8.42513C11.8155 8.39103 11.7609 8.35383 11.7295 8.31934C11.6989 8.28553 11.6866 8.25012 11.6771 8.20953L11.6771 8.20931C11.6438 8.07034 11.6597 7.8789 11.7211 7.65074C11.7823 7.42377 11.8871 7.16555 12.0262 6.89567C12.3045 6.35585 12.7174 5.774 13.1831 5.30828L13.1831 5.30827C14.3006 4.19013 15.1397 3.49963 15.9987 3.22032C16.8535 2.94233 17.7363 3.06943 18.9478 3.61082C21.7107 4.84643 24.4788 5.81365 24.5067 5.82338L24.5068 5.82343C24.8945 5.95755 25.3121 5.75399 25.4462 5.36911L25.4463 5.36895C25.579 4.98421 25.377 4.56383 24.992 4.42959C24.9648 4.42011 22.2549 3.47327 19.5509 2.26277L19.5509 2.26276C17.9673 1.55482 16.7335 1.43085 15.5827 1.80068C14.435 2.16951 13.3777 3.02732 12.1416 4.26407L21.0828 19.0713ZM16.5412 8.06697L16.5617 8.11256C16.2081 8.27171 15.9673 8.37217 15.5363 8.44048C15.0047 9.14058 14.3812 9.61644 13.6928 9.8529C12.9988 10.0913 12.2427 10.0851 11.4545 9.82491C10.8179 9.61508 10.3864 9.16235 10.2404 8.55016L10.2404 8.55008C10.0713 7.83464 10.3147 6.99656 10.7122 6.2254C11.1104 5.45258 11.6681 4.73759 12.1416 4.26408L10.2891 8.53857C10.4307 9.13257 10.8487 9.57259 11.4702 9.77742C13.0281 10.2917 14.4498 9.7994 15.5086 8.3942C15.9458 8.32684 16.1837 8.22784 16.5412 8.06697ZM16.5412 8.06697C16.6704 8.00922 16.8217 7.94186 17.0224 7.86072M16.5412 8.06697L16.5616 8.11262C16.6842 8.0578 16.8263 7.99454 17.0116 7.91907M17.0224 7.86072L16.9882 7.89717C16.996 7.90446 17.0038 7.91176 17.0116 7.91907M17.0224 7.86072L17.0412 7.90707C17.0312 7.91111 17.0213 7.91511 17.0116 7.91907M17.0224 7.86072L17.0116 7.91907M17.0116 7.91907C17.7973 8.65404 18.8505 9.5066 19.9569 10.4007L17.0116 7.91907ZM14.8431 18.8188C14.3628 18.5028 11.3381 16.2465 8.7249 14.058C8.36036 13.7508 7.72748 13.0906 7.16545 12.5038C6.66874 11.9851 6.21131 11.511 5.97501 11.3108L5.97496 11.3108M14.8431 18.8188L5.97496 11.3108M5.97496 11.3108C5.66116 11.0456 5.19644 11.0851 4.9351 11.3979M5.97496 11.3108L4.9351 11.3979M4.9351 11.3979C4.67267 11.709 4.71083 12.1751 5.02219 12.4377L4.9351 11.3979Z" fill="#E35000" stroke="#E35000" stroke-width="0.1"/>
<path d="M13.75 2.88701H7.56246C7.15535 2.88701 6.82494 3.21742 6.82494 3.62453C6.82494 4.03165 7.15535 4.36205 7.56246 4.36205H13.75C14.1571 4.36205 14.4875 4.03165 14.4875 3.62453C14.4875 3.21742 14.1571 2.88701 13.75 2.88701Z" fill="#E35000" stroke="#E35000" stroke-width="0.1"/>
<path d="M28.112 12.8381L28.1121 12.8382C28.3392 13.1761 28.2493 13.6347 27.9116 13.8619L27.9116 13.8619L25.9014 15.2121L25.9014 15.2122L25.8735 15.1707L28.112 12.8381ZM28.112 12.8381C27.8838 12.5009 27.4266 12.4074 27.0884 12.6377M28.112 12.8381L27.0884 12.6377M27.0884 12.6377C27.0883 12.6378 27.0883 12.6378 27.0882 12.6378L27.0884 12.6377Z" fill="#E35000" stroke="#E35000" stroke-width="0.1"/>
<path d="M23.8335 16.1072L23.8335 16.1072C24.1536 16.3594 24.2083 16.8241 23.9559 17.1428L23.9557 17.143C23.8085 17.3271 23.5919 17.4245 23.3749 17.4245C23.2158 17.4245 23.0534 17.3729 22.9191 17.2666C22.9191 17.2665 22.919 17.2665 22.919 17.2665L22.9501 17.2273C22.2254 16.6553 19.1083 13.4061 18.7549 13.0377L23.8335 16.1072ZM23.8335 16.1072C23.5905 15.9157 22.9198 15.2583 22.1365 14.4678C21.3548 13.6789 20.4643 12.7609 19.7838 12.0516C19.5021 11.7566 19.0346 11.7462 18.7409 12.0294C18.4459 12.3113 18.4372 12.7788 18.7188 13.0723L23.8335 16.1072Z" fill="#E35000" stroke="#E35000" stroke-width="0.1"/>
<path d="M21.0866 17.4868L21.0866 17.4868C20.2666 16.8311 18.2002 14.6358 17.7316 14.126L17.7316 14.1259C17.4543 13.825 16.9896 13.8075 16.689 14.0816L16.689 14.0816L16.6888 14.0818C16.3895 14.3575 16.3687 14.825 16.6446 15.1246L16.6446 15.1246L16.6451 15.1251L16.6452 15.1252L16.6454 15.1253L16.6459 15.1259L16.6478 15.1279L16.6542 15.1348L16.6772 15.1595L16.7611 15.2496C16.8331 15.3266 16.9356 15.4362 17.0611 15.5694C17.3122 15.8359 17.6552 16.1973 18.0295 16.5835C18.7769 17.3549 19.6516 18.228 20.1647 18.6388L20.1648 18.6389C20.3005 18.7465 20.4641 18.7996 20.6249 18.7996C20.8403 18.7996 21.0555 18.7037 21.2013 18.524L21.2016 18.5236C21.4553 18.2051 21.4038 17.7405 21.0866 17.4868Z" fill="#E35000" stroke="#E35000" stroke-width="0.1"/>
<path d="M18.3513 18.8725L18.3513 18.8725C17.3738 18.0485 15.37 15.9158 14.9773 15.4954L14.9772 15.4954C14.6986 15.1976 14.2311 15.1812 13.9344 15.4601C13.6365 15.7389 13.6218 16.2049 13.899 16.5028L13.899 16.5028C14.4621 17.1056 16.3838 19.1432 17.4 20.0008L17.4001 20.0008C17.5385 20.1172 17.7067 20.1748 17.875 20.1748C18.0844 20.1748 18.2938 20.0849 18.4398 19.9124L18.4399 19.9122C18.7023 19.5996 18.6626 19.135 18.3513 18.8725Z" fill="#E35000" stroke="#E35000" stroke-width="0.1"/>
<path d="M0.731727 0.13852L0.731727 0.138522C1.44048 0.180487 2.97447 0.29198 4.47922 0.532823C5.23153 0.653233 5.97777 0.806165 6.61045 0.999329C7.24121 1.19191 7.76634 1.42655 8.06989 1.71416C8.23383 1.86784 8.31623 2.08915 8.29705 2.31296L8.29704 2.31303C8.14054 4.10578 7.46895 6.82144 6.82518 9.12427C6.18148 11.4269 5.56425 13.3214 5.51327 13.4779L5.51318 13.4781L0.731727 0.13852ZM0.731727 0.13852L0.731228 0.138495M0.731727 0.13852L0.731228 0.138495M0.731228 0.138495C0.523044 0.128254 0.329416 0.197279 0.181578 0.337718M0.731228 0.138495L0.181578 0.337718M0.181578 0.337718C0.0339934 0.476435 -0.05 0.671099 -0.05 0.874538V13.2495C-0.05 13.6567 0.280407 13.9871 0.687521 13.9871H4.81252C5.13113 13.9871 5.41434 13.7821 5.51317 13.4782L0.181578 0.337718ZM6.78112 2.61612C6.41147 5.6068 4.79606 10.8624 4.27401 12.5121H1.42498V1.6657C2.5119 1.75312 3.63745 1.88971 4.60032 2.05595C5.55695 2.22112 6.34744 2.41467 6.78112 2.61612Z" fill="#E35000" stroke="#E35000" stroke-width="0.1"/>
<path d="M23.7734 2.95624L23.7734 2.95624L23.7731 2.95637C23.5815 3.04628 23.4383 3.213 23.3792 3.41528C23.3203 3.61731 23.3498 3.83403 23.4602 4.0137L23.4604 4.01389C23.6701 4.35162 23.9942 5.07888 24.3714 6.01338C24.7481 6.94632 25.1761 8.08168 25.5936 9.2325C26.4289 11.5347 27.2213 13.896 27.4765 14.8207L27.4765 14.8207C27.565 15.1407 27.8556 15.362 28.1875 15.362H32.3125C32.7196 15.362 33.05 15.0316 33.05 14.6245V2.24947C33.05 1.84093 32.7195 1.51201 32.3125 1.51201C26.9054 1.51201 23.9035 2.89618 23.7734 2.95624ZM31.575 13.887H28.7387C28.0813 11.7538 26.1939 6.32821 25.1201 4.0198C26.1813 3.66474 28.3912 3.07713 31.575 2.99654V13.887Z" fill="#E35000" stroke="#E35000" stroke-width="0.1"/>
</svg>
