<svg width="20" height="20" viewBox="0 0 20 20" fill="none" xmlns="http://www.w3.org/2000/svg">
<path fill-rule="evenodd" clip-rule="evenodd" d="M16.965 15.11L15.792 13.937C15.206 13.351 14.256 13.351 13.671 13.937L12.749 14.859C12.543 15.065 12.231 15.134 11.965 15.017C10.629 14.432 9.30899 13.545 8.13199 12.368C6.95999 11.196 6.07599 9.882 5.48999 8.551C5.36799 8.276 5.43899 7.953 5.65199 7.74L6.47799 6.914C7.14899 6.243 7.14899 5.294 6.56299 4.708L5.38999 3.535C4.60899 2.754 3.34299 2.754 2.56199 3.535L1.90999 4.186C1.16899 4.927 0.859994 5.996 1.05999 7.056C1.55399 9.669 3.07199 12.53 5.52099 14.979C7.96999 17.428 10.831 18.946 13.444 19.44C14.504 19.64 15.573 19.331 16.314 18.59L16.965 17.939C17.746 17.158 17.746 15.892 16.965 15.11Z" fill="#F5DC6C" stroke="#F5DC6C" stroke-linecap="round" stroke-linejoin="round"/>
<path d="M11 5.491C12.031 5.477 13.067 5.859 13.854 6.646" stroke="#F5DC6C" stroke-width="1.5" stroke-linecap="round" stroke-linejoin="round"/>
<path d="M16.682 3.81799C15.113 2.24899 13.056 1.46399 11 1.46399" stroke="#F5DC6C" stroke-width="1.5" stroke-linecap="round" stroke-linejoin="round"/>
<path d="M15.009 9.5C15.023 8.469 14.641 7.433 13.854 6.646" stroke="#F5DC6C" stroke-width="1.5" stroke-linecap="round" stroke-linejoin="round"/>
<path d="M16.682 3.81799C18.251 5.38699 19.036 7.44399 19.036 9.49999" stroke="#F5DC6C" stroke-width="1.5" stroke-linecap="round" stroke-linejoin="round"/>
</svg>
