<svg width="19" height="20" viewBox="0 0 19 20" fill="none" xmlns="http://www.w3.org/2000/svg">
<path d="M17.3333 14.1004V16.6004C17.3343 16.8325 17.2867 17.0622 17.1937 17.2749C17.1008 17.4875 16.9644 17.6784 16.7934 17.8353C16.6224 17.9922 16.4205 18.1116 16.2006 18.186C15.9808 18.2603 15.7478 18.288 15.5167 18.2671C12.9523 17.9884 10.4892 17.1122 8.32498 15.7087C6.31151 14.4293 4.60443 12.7222 3.32499 10.7087C1.91663 8.53474 1.04019 6.05957 0.766652 3.48374C0.745827 3.2533 0.773214 3.02104 0.847069 2.80176C0.920923 2.58248 1.03963 2.38098 1.19562 2.21009C1.35162 2.0392 1.54149 1.90266 1.75314 1.80917C1.9648 1.71569 2.1936 1.66729 2.42499 1.66707H4.92499C5.32941 1.66309 5.72148 1.80631 6.02812 2.07002C6.33476 2.33373 6.53505 2.69995 6.59165 3.10041C6.69717 3.90046 6.89286 4.68601 7.17499 5.44207C7.2871 5.74034 7.31137 6.0645 7.24491 6.37614C7.17844 6.68778 7.02404 6.97383 6.79998 7.20041L5.74165 8.25874C6.92795 10.345 8.65536 12.0724 10.7417 13.2587L11.8 12.2004C12.0266 11.9764 12.3126 11.8219 12.6243 11.7555C12.9359 11.689 13.26 11.7133 13.5583 11.8254C14.3144 12.1075 15.0999 12.3032 15.9 12.4087C16.3048 12.4658 16.6745 12.6697 16.9388 12.9817C17.203 13.2936 17.3435 13.6917 17.3333 14.1004Z" stroke="#F5DC6C" stroke-width="1.5" stroke-linecap="round" stroke-linejoin="round"/>
</svg>
