<svg width="60" height="60" viewBox="0 0 60 60" fill="none" xmlns="http://www.w3.org/2000/svg">
<circle cx="30" cy="30" r="30" fill="url(#paint0_radial_17_1464)"/>
<path d="M22.3015 43.8503L19.1564 37.3467C16.7925 32.4585 18.1773 26.728 22.1777 23.4109C24.6679 21.346 27.0437 19.147 29.224 16.7571L29.7782 16.1496L31.067 17.8524C32.6572 19.9534 33.8707 22.1875 34.5876 24.4513L22.3015 43.8503Z" fill="#FF9200"/>
<path d="M41.5113 24.2618L41.0924 22.1678C39.0219 27.0482 33.7113 29.6415 30.6673 33.0091C25.344 38.8983 22.3015 43.8504 22.3015 43.8504H25.4533C39.4621 43.8504 43.5386 34.3954 41.5113 24.2618Z" fill="#FAA431"/>
<path d="M41.0924 22.1678L40.3289 22.4734C38.4476 23.2264 36.5299 23.8787 34.5876 24.4514V24.4514C33.4291 24.793 32.262 25.1063 31.0885 25.3958C26.043 26.6404 22.3015 31.1964 22.3015 36.6262V43.8504C22.3016 43.8504 35.401 35.5831 41.0924 22.1678Z" fill="#FBB74A"/>
<defs>
<radialGradient id="paint0_radial_17_1464" cx="0" cy="0" r="1" gradientUnits="userSpaceOnUse" gradientTransform="translate(30 30) rotate(90) scale(30)">
<stop offset="0.15248" stop-color="white" stop-opacity="0.5"/>
<stop offset="1" stop-color="#FAD42C"/>
</radialGradient>
</defs>
</svg>
