<svg width="30" height="34" viewBox="0 0 30 34" fill="none" xmlns="http://www.w3.org/2000/svg">
<path d="M28.5249 5.50548L15.5093 0.101527C15.1832 -0.0338091 14.8167 -0.0338755 14.4908 0.101527L1.47511 5.50548C0.979383 5.71134 0.65625 6.19531 0.65625 6.73207V13.3013C0.65625 22.3467 6.12342 30.4833 14.4981 33.9016C14.8198 34.0328 15.1802 34.0328 15.5019 33.9016C23.8765 30.4834 29.3438 22.3468 29.3438 13.3013V6.73207C29.3438 6.19531 29.0207 5.71134 28.5249 5.50548ZM26.6875 13.3013C26.6875 20.9908 22.1719 28.0696 15 31.2293C8.01979 28.154 3.3125 21.1992 3.3125 13.3013V7.61873L15 2.76615L26.6875 7.61873V13.3013ZM13.532 17.778L19.2406 12.0695C19.7592 11.5509 20.6001 11.5508 21.1188 12.0695C21.6375 12.5882 21.6375 13.4291 21.1188 13.9478L14.4712 20.5954C13.9524 21.1142 13.1115 21.114 12.5929 20.5954L8.88121 16.8837C8.36251 16.365 8.36251 15.5241 8.88121 15.0054C9.39991 14.4868 10.2408 14.4867 10.7594 15.0054L13.532 17.778Z" fill="#E35000"/>
</svg>
