<svg width="34" height="34" viewBox="0 0 34 34" fill="none" xmlns="http://www.w3.org/2000/svg">
<path d="M15.8587 22.7515L15.8589 22.7514C16.1407 22.469 16.1407 22.0119 15.8589 21.7295L15.8587 21.7294C15.5765 21.4477 15.1195 21.4478 14.8371 21.7293L14.8371 21.7293L14.8369 21.7295C14.5554 22.0119 14.5554 22.4689 14.8369 22.7513L14.8371 22.7515C15.1195 23.0331 15.5765 23.0331 15.8587 22.7515Z" fill="#E35000" stroke="#E35000" stroke-width="0.2"/>
<path d="M12.7415 7.91166C12.7415 11.7408 15.8566 14.8562 19.6858 14.8562C23.5149 14.8562 26.63 11.7408 26.63 7.91166C26.63 4.0825 23.5149 0.967383 19.6858 0.967383C15.8566 0.967383 12.7415 4.0825 12.7415 7.91166ZM25.1858 7.91166C25.1858 10.9443 22.7184 13.4117 19.6858 13.4117C16.6531 13.4117 14.1858 10.9443 14.1858 7.91166C14.1858 4.87928 16.6531 2.41191 19.6858 2.41191C22.7184 2.41191 25.1858 4.87928 25.1858 7.91166Z" fill="#E35000" stroke="#E35000" stroke-width="0.2"/>
<path d="M12.2757 29.8543L12.2762 29.8538C12.8009 29.3291 12.9705 28.5606 12.7628 27.8808L13.3668 27.2984L13.3668 27.2983C13.6975 26.9789 14.1326 26.803 14.5929 26.803H22.8645C24.3572 26.803 25.7685 26.2299 26.8384 25.1895C26.8439 25.1852 26.8485 25.1808 26.8533 25.1757C26.8612 25.1673 26.8756 25.1506 26.9071 25.1133C26.9719 25.0366 27.1163 24.8641 27.4456 24.4703C27.5656 24.3268 27.7101 24.154 27.8844 23.9456C28.6669 23.0097 30.048 21.3579 32.49 18.4393C33.4113 17.3492 33.2733 15.7128 32.1824 14.7906L32.1823 14.7905C31.0989 13.8775 29.4767 14.0078 28.5525 15.077L24.9597 18.7698C24.4782 18.2268 23.7763 17.892 23.0201 17.892H16.1018C15.1076 17.4789 14.0532 17.2699 12.966 17.2699C9.96197 17.2699 7.3277 18.6476 5.89603 21.2378C5.29446 21.1469 4.66915 21.3388 4.2147 21.7932L4.21459 21.7933L1.25462 24.7621L1.25462 24.7621C0.974107 25.0434 0.97357 25.4986 1.25347 25.7808L1.25349 25.7808L8.23973 32.8203C8.51966 33.1024 8.97542 33.1056 9.25905 32.8262L9.18887 32.7549L9.25905 32.8262L12.2757 29.8543ZM31.3848 17.5096L31.3845 17.51L25.8073 24.1774C25.0114 24.9395 23.9679 25.3587 22.8645 25.3587H14.5929C13.7565 25.3587 12.9643 25.6787 12.3636 26.2591C12.3636 26.2591 12.3636 26.2591 12.3636 26.2591L11.9055 26.7011L7.15313 21.949C8.28166 19.8881 10.3668 18.7142 12.9657 18.7142C13.9051 18.7142 14.8128 18.9032 15.6649 19.2759C15.7563 19.316 15.8548 19.3366 15.9544 19.3366H23.0201C23.6406 19.3366 24.1647 19.843 24.1647 20.4808C24.1647 21.1119 23.6512 21.6254 23.0201 21.6254H17.9436C17.5448 21.6254 17.2214 21.9488 17.2214 22.3475C17.2214 22.7465 17.5448 23.0697 17.9436 23.0697H23.0201C24.4478 23.0697 25.6089 21.9085 25.6089 20.4808C25.6089 20.3832 25.603 20.2866 25.5921 20.191C26.7341 19.0171 27.5581 18.1703 28.151 17.561C28.4693 17.2338 28.721 16.9752 28.9196 16.7711C29.2055 16.4772 29.3811 16.2965 29.4867 16.1877C29.5883 16.083 29.6282 16.0415 29.6373 16.0308C30.0451 15.5494 30.7693 15.4884 31.2508 15.8942C31.7327 16.3017 31.7939 17.0253 31.3848 17.5096ZM5.88385 22.7408L5.88439 22.7412C5.89696 22.7488 5.90112 22.751 5.90337 22.7522C5.90547 22.7533 5.9059 22.7535 5.90997 22.7565C5.91731 22.762 5.93197 22.7743 5.96873 22.8094C6.04112 22.8784 6.18616 23.0227 6.50414 23.341C6.62948 23.4665 6.78153 23.6188 6.96637 23.804C7.71788 24.5571 9.01136 25.8531 11.2549 28.0936C11.4635 28.3021 11.4523 28.6349 11.2585 28.8289C11.2585 28.829 11.2584 28.829 11.2583 28.8291L8.75813 31.2922L2.78468 25.2731L5.2367 22.814C5.23673 22.814 5.23676 22.814 5.23679 22.8139C5.40898 22.6418 5.67292 22.6105 5.88385 22.7408Z" fill="#E35000" stroke="#E35000" stroke-width="0.2"/>
<path d="M18.8299 9.24276L18.83 9.24281C19.0755 9.53511 19.3372 9.6778 19.5613 9.6778C19.8491 9.6778 20.0834 9.44347 20.0834 9.15566C20.0834 8.86785 19.8491 8.63352 19.5613 8.63352C18.4767 8.63352 17.5946 7.7512 17.5946 6.66685C17.5946 5.83687 18.1112 5.12616 18.8391 4.83789V4.17805C18.8391 3.77908 19.1625 3.45566 19.5613 3.45566C19.9601 3.45566 20.2834 3.77908 20.2834 4.17805V4.83186C20.5635 4.93512 20.8674 5.11161 21.1693 5.40371L21.1693 5.40374C21.4557 5.68111 21.4633 6.13825 21.186 6.42495L21.1859 6.42499C20.9085 6.71139 20.4514 6.71903 20.1647 6.44163L20.1647 6.44162C19.9562 6.23983 19.7471 6.14447 19.5613 6.14447C19.2735 6.14447 19.0391 6.37899 19.0391 6.66685C19.0391 6.95467 19.2735 7.18899 19.5613 7.18899C20.6459 7.18899 21.5279 8.07107 21.5279 9.15566C21.5279 9.98543 21.0113 10.6961 20.2834 10.9846V11.6445C20.2834 12.0435 19.96 12.3666 19.5613 12.3666C19.1626 12.3666 18.8391 12.0435 18.8391 11.6445V10.9889C18.4304 10.8368 18.0489 10.5584 17.7243 10.1723L18.8299 9.24276ZM18.8299 9.24276C18.5731 8.93742 18.1177 8.89822 17.8124 9.1547L17.8123 9.15474M18.8299 9.24276L17.8123 9.15474M17.8123 9.15474C17.5071 9.41149 17.4675 9.86695 17.7243 10.1723L17.8123 9.15474Z" fill="#E35000" stroke="#E35000" stroke-width="0.2"/>
</svg>
