<svg width="47" height="34" viewBox="0 0 47 34" fill="none" xmlns="http://www.w3.org/2000/svg">
<mask id="path-1-outside-1_871_8185" maskUnits="userSpaceOnUse" x="0.166626" y="0.0385742" width="47" height="34" fill="black">
<rect fill="white" x="0.166626" y="0.0385742" width="47" height="34"/>
<path d="M37.5269 11.3371H34.6993L35.5513 1.73993C35.5528 1.72254 35.5531 1.70542 35.5532 1.68829C35.5532 1.68683 35.5534 1.68545 35.5534 1.68398C35.5534 1.68373 35.5534 1.68355 35.5534 1.6833C35.5534 1.42209 35.3928 1.19186 35.1567 1.09176C35.1547 1.0909 35.1527 1.08987 35.1507 1.08901C35.1361 1.08298 35.1209 1.07782 35.1056 1.07283C35.0999 1.07102 35.0945 1.06878 35.0888 1.06706C35.0763 1.06336 35.0635 1.06044 35.0508 1.05742C35.0419 1.05536 35.0333 1.05286 35.0242 1.05114C35.0131 1.04899 35.0015 1.04761 34.9901 1.04598C34.9794 1.04443 34.9689 1.04262 34.9581 1.04167C34.9563 1.0415 34.9546 1.04116 34.9527 1.04098C34.9412 1.03995 34.9298 1.04012 34.9183 1.03969C34.9105 1.03943 34.903 1.03857 34.8953 1.03857H34.887C34.8863 1.03857 34.8856 1.03857 34.885 1.03857H21.4311C21.068 1.03857 20.7732 1.32776 20.7732 1.68407C20.7732 2.03952 21.068 2.32957 21.4311 2.32957H34.1782L32.8688 17.0792C32.8687 17.0803 32.8687 17.0814 32.8685 17.0825L32.5381 20.8041H9.67717L10.0595 16.9313H14.4124C14.7758 16.9313 15.0703 16.6423 15.0703 16.2858C15.0703 15.9293 14.7758 15.6403 14.4124 15.6403H10.1871L10.9945 7.46445H17.9223C18.2857 7.46445 18.5802 7.17544 18.5802 6.81895C18.5802 6.46247 18.2857 6.17346 17.9223 6.17346H11.122L11.5017 2.32957H18.7995C19.1618 2.32957 19.4574 2.03952 19.4574 1.68407C19.4574 1.32776 19.1618 1.03857 18.7995 1.03857H10.9046C10.9042 1.03857 10.904 1.03866 10.9036 1.03866C10.5946 1.03857 10.3265 1.25202 10.2617 1.54791C10.2612 1.55007 10.2604 1.55213 10.26 1.55428C10.2567 1.57038 10.2545 1.58682 10.2523 1.60334C10.2517 1.60859 10.2505 1.61358 10.25 1.61883C10.2499 1.61987 10.2496 1.62081 10.2496 1.62184L9.80007 6.17346H1.82454C1.46111 6.17346 1.16663 6.46247 1.16663 6.81895C1.16663 7.17544 1.46111 7.46445 1.82454 7.46445H9.67252L8.86513 15.6403H6.5178C6.15437 15.6403 5.85989 15.9293 5.85989 16.2858C5.85989 16.6423 6.15437 16.9313 6.5178 16.9313H8.73767L8.29802 21.3827C8.29793 21.3834 8.29793 21.3841 8.29784 21.3847L7.61809 28.2682C7.618 28.269 7.61791 28.2698 7.61783 28.2705L7.61756 28.273C7.61668 28.282 7.61677 28.2907 7.61625 28.2997C7.61563 28.3116 7.6144 28.3232 7.6144 28.3352C7.6144 28.3358 7.61449 28.3363 7.61449 28.3369C7.61449 28.3535 7.61572 28.3698 7.61695 28.3862C7.61747 28.3914 7.6173 28.3968 7.61791 28.4019C7.61967 28.4186 7.62256 28.4351 7.62563 28.4514C7.62651 28.4563 7.62695 28.4612 7.62791 28.4659C7.63046 28.4783 7.63405 28.4902 7.63739 28.5024C7.63967 28.5109 7.64151 28.5196 7.64414 28.5279C7.64493 28.5303 7.64598 28.5325 7.64669 28.5349C7.67853 28.631 7.73256 28.7172 7.80309 28.7876C7.80441 28.7889 7.80546 28.7904 7.80678 28.7916C7.81379 28.7985 7.82143 28.8046 7.82879 28.8112C7.87415 28.852 7.92538 28.8866 7.98143 28.9137C7.9931 28.9194 8.00459 28.9253 8.01652 28.9302C8.02011 28.9318 8.02397 28.9328 8.02766 28.9342C8.04415 28.9406 8.06073 28.9468 8.07784 28.9521C8.07941 28.9525 8.08091 28.9528 8.08248 28.9533C8.10196 28.959 8.12161 28.964 8.1417 28.968C8.14433 28.9685 8.14705 28.9687 8.14959 28.9692C8.16871 28.9727 8.18793 28.9757 8.20749 28.9776C8.20793 28.9776 8.20828 28.9777 8.20872 28.9778C8.2303 28.9799 8.2517 28.9809 8.27293 28.9809C8.27319 28.9809 8.27354 28.9808 8.27389 28.9808H11.2027C11.5262 31.3866 13.6284 33.25 16.1675 33.25C18.7064 33.25 20.8087 31.3866 21.1321 28.9808H31.6849C32.0084 31.3866 34.1105 33.25 36.6495 33.25C39.1885 33.25 41.2909 31.3866 41.6144 28.9808H44.5439C44.5444 28.9808 44.5449 28.9809 44.5453 28.9809C44.5673 28.9809 44.5888 28.9796 44.6102 28.9776C44.6141 28.9772 44.6178 28.9764 44.6216 28.976C44.6388 28.974 44.6558 28.9717 44.6724 28.9684C44.6796 28.9671 44.6866 28.9652 44.6937 28.9635C44.7066 28.9606 44.7195 28.9575 44.7322 28.9538C44.7408 28.9513 44.7491 28.9484 44.7575 28.9455C44.7683 28.9419 44.7791 28.9381 44.7897 28.9339C44.7988 28.9304 44.8075 28.9265 44.8164 28.9226C44.826 28.9183 44.8357 28.9138 44.8451 28.909C44.854 28.9046 44.8626 28.8999 44.8712 28.8951C44.8802 28.8899 44.8892 28.8846 44.8981 28.8791C44.9063 28.8739 44.9145 28.8687 44.9224 28.8632C44.9314 28.8571 44.9399 28.8506 44.9486 28.8441C44.9558 28.8385 44.9631 28.833 44.9701 28.8271C44.9791 28.8196 44.9876 28.8118 44.9962 28.8038C45.0022 28.7982 45.0084 28.7927 45.0142 28.7868C45.0233 28.7777 45.032 28.7681 45.0407 28.7583C45.0453 28.7531 45.0502 28.748 45.0546 28.7427C45.0643 28.731 45.0731 28.7189 45.0818 28.7068C45.0848 28.7026 45.0881 28.6986 45.091 28.6943C45.1017 28.6786 45.1118 28.6624 45.1211 28.6457C45.1218 28.6446 45.1225 28.6437 45.123 28.6426C45.1329 28.6247 45.142 28.6063 45.1502 28.5874C45.1524 28.582 45.1542 28.5764 45.1564 28.571C45.1617 28.5576 45.167 28.5443 45.1715 28.5304C45.1744 28.5215 45.1765 28.5123 45.179 28.5032C45.1819 28.4925 45.185 28.4818 45.1874 28.4709C45.1896 28.4612 45.191 28.4512 45.1927 28.4413C45.1942 28.4326 45.1961 28.4241 45.1973 28.4152C45.2252 28.1959 45.7404 24.1405 45.9705 21.5183C45.9707 21.5158 45.9708 21.5132 45.9711 21.5107C46.0373 20.7548 46.0798 20.1182 46.0798 19.7285C46.0798 15.1015 42.243 11.3371 37.5269 11.3371ZM34.5847 12.6282H37.2762L36.9324 16.5009H34.2409L34.5847 12.6282ZM16.1677 31.9589C14.131 31.9589 12.4742 30.3333 12.4742 28.3352C12.4742 26.337 14.1311 24.7114 16.1677 24.7114C18.2042 24.7114 19.8611 26.337 19.8611 28.3352C19.8611 30.3333 18.2042 31.9589 16.1677 31.9589ZM36.6495 31.9589C34.613 31.9589 32.9562 30.3333 32.9562 28.3352C32.9562 26.337 34.6131 24.7114 36.6495 24.7114C38.6862 24.7114 40.343 26.337 40.343 28.3352C40.343 30.3333 38.6862 31.9589 36.6495 31.9589ZM43.9626 27.6894H41.6146C41.2912 25.2834 39.1889 23.42 36.6497 23.42C34.1107 23.42 32.0084 25.2835 31.685 27.6894H21.1323C20.809 25.2834 18.7068 23.42 16.1677 23.42C13.6286 23.42 11.5262 25.2835 11.2028 27.6894H8.99715L9.54971 22.0948H33.141V22.0951C33.1414 22.0951 33.1416 22.0951 33.142 22.0951C33.164 22.0951 33.1859 22.0939 33.2074 22.0917C33.2115 22.0914 33.2154 22.0905 33.2195 22.09C33.2367 22.088 33.2538 22.0856 33.2706 22.0824C33.2779 22.0809 33.285 22.0789 33.2922 22.0772C33.3053 22.0741 33.3185 22.0711 33.3313 22.0673C33.3401 22.0647 33.3484 22.0616 33.3569 22.0587C33.368 22.0549 33.379 22.0512 33.3897 22.0469C33.3989 22.0432 33.4078 22.0391 33.4167 22.0349C33.4265 22.0305 33.4362 22.0262 33.4456 22.0213C33.4546 22.0167 33.4633 22.0117 33.4722 22.0067C33.4812 22.0015 33.4902 21.9963 33.4989 21.9908C33.5074 21.9854 33.5155 21.9797 33.5237 21.974C33.5324 21.968 33.5408 21.9618 33.5492 21.9553C33.5567 21.9494 33.5642 21.9433 33.5716 21.937C33.5799 21.9299 33.5881 21.9227 33.596 21.9152C33.6026 21.9089 33.6093 21.9025 33.6158 21.8959C33.6237 21.8878 33.6313 21.8794 33.6389 21.8709C33.6447 21.8642 33.6505 21.8575 33.6561 21.8506C33.6634 21.8415 33.6703 21.8323 33.6772 21.8229C33.6824 21.8158 33.6874 21.8088 33.6923 21.8015C33.6987 21.7918 33.7048 21.7818 33.7107 21.7717C33.7152 21.7641 33.7197 21.7565 33.7238 21.7488C33.7293 21.7386 33.734 21.7283 33.739 21.7179C33.7429 21.7095 33.7468 21.7013 33.7503 21.6927C33.7546 21.6826 33.7582 21.6722 33.762 21.6618C33.7653 21.6525 33.7687 21.6433 33.7716 21.6339C33.7745 21.6239 33.7768 21.6136 33.7795 21.6035C33.782 21.5932 33.7848 21.5831 33.7868 21.5727C33.7889 21.5625 33.7901 21.5522 33.7917 21.5419C33.7932 21.5312 33.7951 21.5207 33.7961 21.5098C33.7963 21.5083 33.7967 21.5068 33.7968 21.5053L34.1265 17.7915H37.5267C39.5425 17.7915 40.4516 18.8162 41.414 19.9012C42.2082 20.7964 43.0948 21.7952 44.6018 22.0388C44.4104 24.0244 44.101 26.5733 43.9626 27.6894ZM44.7143 20.7452C43.7366 20.5497 43.1351 19.8754 42.4064 19.054C41.4951 18.0268 40.3825 16.7732 38.2497 16.5396L38.5901 12.7055C42.0783 13.2117 44.7639 16.1679 44.7639 19.7287C44.7639 19.9706 44.7455 20.3221 44.7143 20.7452Z"/>
</mask>
<path d="M37.5269 11.3371H34.6993L35.5513 1.73993C35.5528 1.72254 35.5531 1.70542 35.5532 1.68829C35.5532 1.68683 35.5534 1.68545 35.5534 1.68398C35.5534 1.68373 35.5534 1.68355 35.5534 1.6833C35.5534 1.42209 35.3928 1.19186 35.1567 1.09176C35.1547 1.0909 35.1527 1.08987 35.1507 1.08901C35.1361 1.08298 35.1209 1.07782 35.1056 1.07283C35.0999 1.07102 35.0945 1.06878 35.0888 1.06706C35.0763 1.06336 35.0635 1.06044 35.0508 1.05742C35.0419 1.05536 35.0333 1.05286 35.0242 1.05114C35.0131 1.04899 35.0015 1.04761 34.9901 1.04598C34.9794 1.04443 34.9689 1.04262 34.9581 1.04167C34.9563 1.0415 34.9546 1.04116 34.9527 1.04098C34.9412 1.03995 34.9298 1.04012 34.9183 1.03969C34.9105 1.03943 34.903 1.03857 34.8953 1.03857H34.887C34.8863 1.03857 34.8856 1.03857 34.885 1.03857H21.4311C21.068 1.03857 20.7732 1.32776 20.7732 1.68407C20.7732 2.03952 21.068 2.32957 21.4311 2.32957H34.1782L32.8688 17.0792C32.8687 17.0803 32.8687 17.0814 32.8685 17.0825L32.5381 20.8041H9.67717L10.0595 16.9313H14.4124C14.7758 16.9313 15.0703 16.6423 15.0703 16.2858C15.0703 15.9293 14.7758 15.6403 14.4124 15.6403H10.1871L10.9945 7.46445H17.9223C18.2857 7.46445 18.5802 7.17544 18.5802 6.81895C18.5802 6.46247 18.2857 6.17346 17.9223 6.17346H11.122L11.5017 2.32957H18.7995C19.1618 2.32957 19.4574 2.03952 19.4574 1.68407C19.4574 1.32776 19.1618 1.03857 18.7995 1.03857H10.9046C10.9042 1.03857 10.904 1.03866 10.9036 1.03866C10.5946 1.03857 10.3265 1.25202 10.2617 1.54791C10.2612 1.55007 10.2604 1.55213 10.26 1.55428C10.2567 1.57038 10.2545 1.58682 10.2523 1.60334C10.2517 1.60859 10.2505 1.61358 10.25 1.61883C10.2499 1.61987 10.2496 1.62081 10.2496 1.62184L9.80007 6.17346H1.82454C1.46111 6.17346 1.16663 6.46247 1.16663 6.81895C1.16663 7.17544 1.46111 7.46445 1.82454 7.46445H9.67252L8.86513 15.6403H6.5178C6.15437 15.6403 5.85989 15.9293 5.85989 16.2858C5.85989 16.6423 6.15437 16.9313 6.5178 16.9313H8.73767L8.29802 21.3827C8.29793 21.3834 8.29793 21.3841 8.29784 21.3847L7.61809 28.2682C7.618 28.269 7.61791 28.2698 7.61783 28.2705L7.61756 28.273C7.61668 28.282 7.61677 28.2907 7.61625 28.2997C7.61563 28.3116 7.6144 28.3232 7.6144 28.3352C7.6144 28.3358 7.61449 28.3363 7.61449 28.3369C7.61449 28.3535 7.61572 28.3698 7.61695 28.3862C7.61747 28.3914 7.6173 28.3968 7.61791 28.4019C7.61967 28.4186 7.62256 28.4351 7.62563 28.4514C7.62651 28.4563 7.62695 28.4612 7.62791 28.4659C7.63046 28.4783 7.63405 28.4902 7.63739 28.5024C7.63967 28.5109 7.64151 28.5196 7.64414 28.5279C7.64493 28.5303 7.64598 28.5325 7.64669 28.5349C7.67853 28.631 7.73256 28.7172 7.80309 28.7876C7.80441 28.7889 7.80546 28.7904 7.80678 28.7916C7.81379 28.7985 7.82143 28.8046 7.82879 28.8112C7.87415 28.852 7.92538 28.8866 7.98143 28.9137C7.9931 28.9194 8.00459 28.9253 8.01652 28.9302C8.02011 28.9318 8.02397 28.9328 8.02766 28.9342C8.04415 28.9406 8.06073 28.9468 8.07784 28.9521C8.07941 28.9525 8.08091 28.9528 8.08248 28.9533C8.10196 28.959 8.12161 28.964 8.1417 28.968C8.14433 28.9685 8.14705 28.9687 8.14959 28.9692C8.16871 28.9727 8.18793 28.9757 8.20749 28.9776C8.20793 28.9776 8.20828 28.9777 8.20872 28.9778C8.2303 28.9799 8.2517 28.9809 8.27293 28.9809C8.27319 28.9809 8.27354 28.9808 8.27389 28.9808H11.2027C11.5262 31.3866 13.6284 33.25 16.1675 33.25C18.7064 33.25 20.8087 31.3866 21.1321 28.9808H31.6849C32.0084 31.3866 34.1105 33.25 36.6495 33.25C39.1885 33.25 41.2909 31.3866 41.6144 28.9808H44.5439C44.5444 28.9808 44.5449 28.9809 44.5453 28.9809C44.5673 28.9809 44.5888 28.9796 44.6102 28.9776C44.6141 28.9772 44.6178 28.9764 44.6216 28.976C44.6388 28.974 44.6558 28.9717 44.6724 28.9684C44.6796 28.9671 44.6866 28.9652 44.6937 28.9635C44.7066 28.9606 44.7195 28.9575 44.7322 28.9538C44.7408 28.9513 44.7491 28.9484 44.7575 28.9455C44.7683 28.9419 44.7791 28.9381 44.7897 28.9339C44.7988 28.9304 44.8075 28.9265 44.8164 28.9226C44.826 28.9183 44.8357 28.9138 44.8451 28.909C44.854 28.9046 44.8626 28.8999 44.8712 28.8951C44.8802 28.8899 44.8892 28.8846 44.8981 28.8791C44.9063 28.8739 44.9145 28.8687 44.9224 28.8632C44.9314 28.8571 44.9399 28.8506 44.9486 28.8441C44.9558 28.8385 44.9631 28.833 44.9701 28.8271C44.9791 28.8196 44.9876 28.8118 44.9962 28.8038C45.0022 28.7982 45.0084 28.7927 45.0142 28.7868C45.0233 28.7777 45.032 28.7681 45.0407 28.7583C45.0453 28.7531 45.0502 28.748 45.0546 28.7427C45.0643 28.731 45.0731 28.7189 45.0818 28.7068C45.0848 28.7026 45.0881 28.6986 45.091 28.6943C45.1017 28.6786 45.1118 28.6624 45.1211 28.6457C45.1218 28.6446 45.1225 28.6437 45.123 28.6426C45.1329 28.6247 45.142 28.6063 45.1502 28.5874C45.1524 28.582 45.1542 28.5764 45.1564 28.571C45.1617 28.5576 45.167 28.5443 45.1715 28.5304C45.1744 28.5215 45.1765 28.5123 45.179 28.5032C45.1819 28.4925 45.185 28.4818 45.1874 28.4709C45.1896 28.4612 45.191 28.4512 45.1927 28.4413C45.1942 28.4326 45.1961 28.4241 45.1973 28.4152C45.2252 28.1959 45.7404 24.1405 45.9705 21.5183C45.9707 21.5158 45.9708 21.5132 45.9711 21.5107C46.0373 20.7548 46.0798 20.1182 46.0798 19.7285C46.0798 15.1015 42.243 11.3371 37.5269 11.3371ZM34.5847 12.6282H37.2762L36.9324 16.5009H34.2409L34.5847 12.6282ZM16.1677 31.9589C14.131 31.9589 12.4742 30.3333 12.4742 28.3352C12.4742 26.337 14.1311 24.7114 16.1677 24.7114C18.2042 24.7114 19.8611 26.337 19.8611 28.3352C19.8611 30.3333 18.2042 31.9589 16.1677 31.9589ZM36.6495 31.9589C34.613 31.9589 32.9562 30.3333 32.9562 28.3352C32.9562 26.337 34.6131 24.7114 36.6495 24.7114C38.6862 24.7114 40.343 26.337 40.343 28.3352C40.343 30.3333 38.6862 31.9589 36.6495 31.9589ZM43.9626 27.6894H41.6146C41.2912 25.2834 39.1889 23.42 36.6497 23.42C34.1107 23.42 32.0084 25.2835 31.685 27.6894H21.1323C20.809 25.2834 18.7068 23.42 16.1677 23.42C13.6286 23.42 11.5262 25.2835 11.2028 27.6894H8.99715L9.54971 22.0948H33.141V22.0951C33.1414 22.0951 33.1416 22.0951 33.142 22.0951C33.164 22.0951 33.1859 22.0939 33.2074 22.0917C33.2115 22.0914 33.2154 22.0905 33.2195 22.09C33.2367 22.088 33.2538 22.0856 33.2706 22.0824C33.2779 22.0809 33.285 22.0789 33.2922 22.0772C33.3053 22.0741 33.3185 22.0711 33.3313 22.0673C33.3401 22.0647 33.3484 22.0616 33.3569 22.0587C33.368 22.0549 33.379 22.0512 33.3897 22.0469C33.3989 22.0432 33.4078 22.0391 33.4167 22.0349C33.4265 22.0305 33.4362 22.0262 33.4456 22.0213C33.4546 22.0167 33.4633 22.0117 33.4722 22.0067C33.4812 22.0015 33.4902 21.9963 33.4989 21.9908C33.5074 21.9854 33.5155 21.9797 33.5237 21.974C33.5324 21.968 33.5408 21.9618 33.5492 21.9553C33.5567 21.9494 33.5642 21.9433 33.5716 21.937C33.5799 21.9299 33.5881 21.9227 33.596 21.9152C33.6026 21.9089 33.6093 21.9025 33.6158 21.8959C33.6237 21.8878 33.6313 21.8794 33.6389 21.8709C33.6447 21.8642 33.6505 21.8575 33.6561 21.8506C33.6634 21.8415 33.6703 21.8323 33.6772 21.8229C33.6824 21.8158 33.6874 21.8088 33.6923 21.8015C33.6987 21.7918 33.7048 21.7818 33.7107 21.7717C33.7152 21.7641 33.7197 21.7565 33.7238 21.7488C33.7293 21.7386 33.734 21.7283 33.739 21.7179C33.7429 21.7095 33.7468 21.7013 33.7503 21.6927C33.7546 21.6826 33.7582 21.6722 33.762 21.6618C33.7653 21.6525 33.7687 21.6433 33.7716 21.6339C33.7745 21.6239 33.7768 21.6136 33.7795 21.6035C33.782 21.5932 33.7848 21.5831 33.7868 21.5727C33.7889 21.5625 33.7901 21.5522 33.7917 21.5419C33.7932 21.5312 33.7951 21.5207 33.7961 21.5098C33.7963 21.5083 33.7967 21.5068 33.7968 21.5053L34.1265 17.7915H37.5267C39.5425 17.7915 40.4516 18.8162 41.414 19.9012C42.2082 20.7964 43.0948 21.7952 44.6018 22.0388C44.4104 24.0244 44.101 26.5733 43.9626 27.6894ZM44.7143 20.7452C43.7366 20.5497 43.1351 19.8754 42.4064 19.054C41.4951 18.0268 40.3825 16.7732 38.2497 16.5396L38.5901 12.7055C42.0783 13.2117 44.7639 16.1679 44.7639 19.7287C44.7639 19.9706 44.7455 20.3221 44.7143 20.7452Z" fill="#E35000"/>
<path d="M37.5269 11.3371H34.6993L35.5513 1.73993C35.5528 1.72254 35.5531 1.70542 35.5532 1.68829C35.5532 1.68683 35.5534 1.68545 35.5534 1.68398C35.5534 1.68373 35.5534 1.68355 35.5534 1.6833C35.5534 1.42209 35.3928 1.19186 35.1567 1.09176C35.1547 1.0909 35.1527 1.08987 35.1507 1.08901C35.1361 1.08298 35.1209 1.07782 35.1056 1.07283C35.0999 1.07102 35.0945 1.06878 35.0888 1.06706C35.0763 1.06336 35.0635 1.06044 35.0508 1.05742C35.0419 1.05536 35.0333 1.05286 35.0242 1.05114C35.0131 1.04899 35.0015 1.04761 34.9901 1.04598C34.9794 1.04443 34.9689 1.04262 34.9581 1.04167C34.9563 1.0415 34.9546 1.04116 34.9527 1.04098C34.9412 1.03995 34.9298 1.04012 34.9183 1.03969C34.9105 1.03943 34.903 1.03857 34.8953 1.03857H34.887C34.8863 1.03857 34.8856 1.03857 34.885 1.03857H21.4311C21.068 1.03857 20.7732 1.32776 20.7732 1.68407C20.7732 2.03952 21.068 2.32957 21.4311 2.32957H34.1782L32.8688 17.0792C32.8687 17.0803 32.8687 17.0814 32.8685 17.0825L32.5381 20.8041H9.67717L10.0595 16.9313H14.4124C14.7758 16.9313 15.0703 16.6423 15.0703 16.2858C15.0703 15.9293 14.7758 15.6403 14.4124 15.6403H10.1871L10.9945 7.46445H17.9223C18.2857 7.46445 18.5802 7.17544 18.5802 6.81895C18.5802 6.46247 18.2857 6.17346 17.9223 6.17346H11.122L11.5017 2.32957H18.7995C19.1618 2.32957 19.4574 2.03952 19.4574 1.68407C19.4574 1.32776 19.1618 1.03857 18.7995 1.03857H10.9046C10.9042 1.03857 10.904 1.03866 10.9036 1.03866C10.5946 1.03857 10.3265 1.25202 10.2617 1.54791C10.2612 1.55007 10.2604 1.55213 10.26 1.55428C10.2567 1.57038 10.2545 1.58682 10.2523 1.60334C10.2517 1.60859 10.2505 1.61358 10.25 1.61883C10.2499 1.61987 10.2496 1.62081 10.2496 1.62184L9.80007 6.17346H1.82454C1.46111 6.17346 1.16663 6.46247 1.16663 6.81895C1.16663 7.17544 1.46111 7.46445 1.82454 7.46445H9.67252L8.86513 15.6403H6.5178C6.15437 15.6403 5.85989 15.9293 5.85989 16.2858C5.85989 16.6423 6.15437 16.9313 6.5178 16.9313H8.73767L8.29802 21.3827C8.29793 21.3834 8.29793 21.3841 8.29784 21.3847L7.61809 28.2682C7.618 28.269 7.61791 28.2698 7.61783 28.2705L7.61756 28.273C7.61668 28.282 7.61677 28.2907 7.61625 28.2997C7.61563 28.3116 7.6144 28.3232 7.6144 28.3352C7.6144 28.3358 7.61449 28.3363 7.61449 28.3369C7.61449 28.3535 7.61572 28.3698 7.61695 28.3862C7.61747 28.3914 7.6173 28.3968 7.61791 28.4019C7.61967 28.4186 7.62256 28.4351 7.62563 28.4514C7.62651 28.4563 7.62695 28.4612 7.62791 28.4659C7.63046 28.4783 7.63405 28.4902 7.63739 28.5024C7.63967 28.5109 7.64151 28.5196 7.64414 28.5279C7.64493 28.5303 7.64598 28.5325 7.64669 28.5349C7.67853 28.631 7.73256 28.7172 7.80309 28.7876C7.80441 28.7889 7.80546 28.7904 7.80678 28.7916C7.81379 28.7985 7.82143 28.8046 7.82879 28.8112C7.87415 28.852 7.92538 28.8866 7.98143 28.9137C7.9931 28.9194 8.00459 28.9253 8.01652 28.9302C8.02011 28.9318 8.02397 28.9328 8.02766 28.9342C8.04415 28.9406 8.06073 28.9468 8.07784 28.9521C8.07941 28.9525 8.08091 28.9528 8.08248 28.9533C8.10196 28.959 8.12161 28.964 8.1417 28.968C8.14433 28.9685 8.14705 28.9687 8.14959 28.9692C8.16871 28.9727 8.18793 28.9757 8.20749 28.9776C8.20793 28.9776 8.20828 28.9777 8.20872 28.9778C8.2303 28.9799 8.2517 28.9809 8.27293 28.9809C8.27319 28.9809 8.27354 28.9808 8.27389 28.9808H11.2027C11.5262 31.3866 13.6284 33.25 16.1675 33.25C18.7064 33.25 20.8087 31.3866 21.1321 28.9808H31.6849C32.0084 31.3866 34.1105 33.25 36.6495 33.25C39.1885 33.25 41.2909 31.3866 41.6144 28.9808H44.5439C44.5444 28.9808 44.5449 28.9809 44.5453 28.9809C44.5673 28.9809 44.5888 28.9796 44.6102 28.9776C44.6141 28.9772 44.6178 28.9764 44.6216 28.976C44.6388 28.974 44.6558 28.9717 44.6724 28.9684C44.6796 28.9671 44.6866 28.9652 44.6937 28.9635C44.7066 28.9606 44.7195 28.9575 44.7322 28.9538C44.7408 28.9513 44.7491 28.9484 44.7575 28.9455C44.7683 28.9419 44.7791 28.9381 44.7897 28.9339C44.7988 28.9304 44.8075 28.9265 44.8164 28.9226C44.826 28.9183 44.8357 28.9138 44.8451 28.909C44.854 28.9046 44.8626 28.8999 44.8712 28.8951C44.8802 28.8899 44.8892 28.8846 44.8981 28.8791C44.9063 28.8739 44.9145 28.8687 44.9224 28.8632C44.9314 28.8571 44.9399 28.8506 44.9486 28.8441C44.9558 28.8385 44.9631 28.833 44.9701 28.8271C44.9791 28.8196 44.9876 28.8118 44.9962 28.8038C45.0022 28.7982 45.0084 28.7927 45.0142 28.7868C45.0233 28.7777 45.032 28.7681 45.0407 28.7583C45.0453 28.7531 45.0502 28.748 45.0546 28.7427C45.0643 28.731 45.0731 28.7189 45.0818 28.7068C45.0848 28.7026 45.0881 28.6986 45.091 28.6943C45.1017 28.6786 45.1118 28.6624 45.1211 28.6457C45.1218 28.6446 45.1225 28.6437 45.123 28.6426C45.1329 28.6247 45.142 28.6063 45.1502 28.5874C45.1524 28.582 45.1542 28.5764 45.1564 28.571C45.1617 28.5576 45.167 28.5443 45.1715 28.5304C45.1744 28.5215 45.1765 28.5123 45.179 28.5032C45.1819 28.4925 45.185 28.4818 45.1874 28.4709C45.1896 28.4612 45.191 28.4512 45.1927 28.4413C45.1942 28.4326 45.1961 28.4241 45.1973 28.4152C45.2252 28.1959 45.7404 24.1405 45.9705 21.5183C45.9707 21.5158 45.9708 21.5132 45.9711 21.5107C46.0373 20.7548 46.0798 20.1182 46.0798 19.7285C46.0798 15.1015 42.243 11.3371 37.5269 11.3371ZM34.5847 12.6282H37.2762L36.9324 16.5009H34.2409L34.5847 12.6282ZM16.1677 31.9589C14.131 31.9589 12.4742 30.3333 12.4742 28.3352C12.4742 26.337 14.1311 24.7114 16.1677 24.7114C18.2042 24.7114 19.8611 26.337 19.8611 28.3352C19.8611 30.3333 18.2042 31.9589 16.1677 31.9589ZM36.6495 31.9589C34.613 31.9589 32.9562 30.3333 32.9562 28.3352C32.9562 26.337 34.6131 24.7114 36.6495 24.7114C38.6862 24.7114 40.343 26.337 40.343 28.3352C40.343 30.3333 38.6862 31.9589 36.6495 31.9589ZM43.9626 27.6894H41.6146C41.2912 25.2834 39.1889 23.42 36.6497 23.42C34.1107 23.42 32.0084 25.2835 31.685 27.6894H21.1323C20.809 25.2834 18.7068 23.42 16.1677 23.42C13.6286 23.42 11.5262 25.2835 11.2028 27.6894H8.99715L9.54971 22.0948H33.141V22.0951C33.1414 22.0951 33.1416 22.0951 33.142 22.0951C33.164 22.0951 33.1859 22.0939 33.2074 22.0917C33.2115 22.0914 33.2154 22.0905 33.2195 22.09C33.2367 22.088 33.2538 22.0856 33.2706 22.0824C33.2779 22.0809 33.285 22.0789 33.2922 22.0772C33.3053 22.0741 33.3185 22.0711 33.3313 22.0673C33.3401 22.0647 33.3484 22.0616 33.3569 22.0587C33.368 22.0549 33.379 22.0512 33.3897 22.0469C33.3989 22.0432 33.4078 22.0391 33.4167 22.0349C33.4265 22.0305 33.4362 22.0262 33.4456 22.0213C33.4546 22.0167 33.4633 22.0117 33.4722 22.0067C33.4812 22.0015 33.4902 21.9963 33.4989 21.9908C33.5074 21.9854 33.5155 21.9797 33.5237 21.974C33.5324 21.968 33.5408 21.9618 33.5492 21.9553C33.5567 21.9494 33.5642 21.9433 33.5716 21.937C33.5799 21.9299 33.5881 21.9227 33.596 21.9152C33.6026 21.9089 33.6093 21.9025 33.6158 21.8959C33.6237 21.8878 33.6313 21.8794 33.6389 21.8709C33.6447 21.8642 33.6505 21.8575 33.6561 21.8506C33.6634 21.8415 33.6703 21.8323 33.6772 21.8229C33.6824 21.8158 33.6874 21.8088 33.6923 21.8015C33.6987 21.7918 33.7048 21.7818 33.7107 21.7717C33.7152 21.7641 33.7197 21.7565 33.7238 21.7488C33.7293 21.7386 33.734 21.7283 33.739 21.7179C33.7429 21.7095 33.7468 21.7013 33.7503 21.6927C33.7546 21.6826 33.7582 21.6722 33.762 21.6618C33.7653 21.6525 33.7687 21.6433 33.7716 21.6339C33.7745 21.6239 33.7768 21.6136 33.7795 21.6035C33.782 21.5932 33.7848 21.5831 33.7868 21.5727C33.7889 21.5625 33.7901 21.5522 33.7917 21.5419C33.7932 21.5312 33.7951 21.5207 33.7961 21.5098C33.7963 21.5083 33.7967 21.5068 33.7968 21.5053L34.1265 17.7915H37.5267C39.5425 17.7915 40.4516 18.8162 41.414 19.9012C42.2082 20.7964 43.0948 21.7952 44.6018 22.0388C44.4104 24.0244 44.101 26.5733 43.9626 27.6894ZM44.7143 20.7452C43.7366 20.5497 43.1351 19.8754 42.4064 19.054C41.4951 18.0268 40.3825 16.7732 38.2497 16.5396L38.5901 12.7055C42.0783 13.2117 44.7639 16.1679 44.7639 19.7287C44.7639 19.9706 44.7455 20.3221 44.7143 20.7452Z" stroke="#E35000" stroke-width="0.46" mask="url(#path-1-outside-1_871_8185)"/>
</svg>
