<svg width="14" height="9" viewBox="0 0 14 9" fill="none" xmlns="http://www.w3.org/2000/svg">
<path d="M5.77157 7.58752C6.21794 7.17141 6.28668 6.51965 5.92509 6.13177C5.56351 5.74388 4.90853 5.76675 4.46216 6.18286C4.01579 6.59896 3.94705 7.25072 4.30863 7.63861C4.67022 8.0265 5.3252 8.00362 5.77157 7.58752Z" fill="#0CAF3A"/>
<path d="M11.6778 7.58801C12.1242 7.1719 12.1929 6.52014 11.8313 6.13225C11.4698 5.74437 10.8148 5.76724 10.3684 6.18335C9.92204 6.59945 9.8533 7.25121 10.2149 7.6391C10.5765 8.02698 11.2314 8.00411 11.6778 7.58801Z" fill="#0CAF3A"/>
<path d="M1.08775 2.49499C1.08775 2.23739 0.878926 2.02856 0.621329 2.02856C0.363731 2.02856 0.154907 2.23739 0.154907 2.49499C0.154907 2.75258 0.363731 2.96141 0.621329 2.96141C0.878926 2.96141 1.08775 2.75258 1.08775 2.49499Z" fill="#0CAF3A"/>
<path d="M9.47163 6.78774C9.63744 5.96826 10.4116 5.31704 11.2436 5.31704C12.0448 5.31704 12.6223 5.921 12.6064 6.69759C13.4729 6.72027 13.7141 5.57927 13.7141 5.57927C13.787 5.26022 13.896 4.63824 13.9872 4.02772C14.0172 3.83923 13.9942 3.64614 13.9209 3.46993C13.6944 2.9412 13.4207 2.43398 13.103 1.95443C12.8026 1.50618 12.2986 1.24067 11.7233 1.23111C11.3802 1.22564 11.0434 1.22236 10.7891 1.22236L10.7869 1.22018C10.7541 0.671673 10.3542 0.251552 9.79287 0.201291C9.42765 0.168784 7.98099 0.14502 7.28662 0.14502C7.01073 0.14502 6.61492 0.148844 6.21447 0.1554V0.153761H6.21119H1.39646C1.33518 0.153725 1.2745 0.165768 1.21787 0.189202C1.16125 0.212636 1.10981 0.247001 1.06647 0.290332C1.02314 0.333663 0.988778 0.385111 0.965344 0.441732C0.94191 0.498354 0.929866 0.559039 0.929902 0.620319V0.622504C0.929902 0.745664 0.978827 0.863779 1.06591 0.950865C1.153 1.03795 1.27112 1.08688 1.39428 1.08688H2.36481C2.48168 1.09549 2.59097 1.14797 2.67076 1.23379C2.75055 1.31961 2.79495 1.43243 2.79504 1.54961V1.55207C2.79522 1.61341 2.7833 1.67418 2.75997 1.73091C2.73664 1.78763 2.70235 1.8392 2.65907 1.88267C2.61578 1.92613 2.56435 1.96063 2.50772 1.98419C2.45109 2.00776 2.39037 2.01992 2.32903 2.01999H1.83133C1.70767 2.01999 1.58906 2.06912 1.50162 2.15656C1.41417 2.24401 1.36505 2.36261 1.36505 2.48628C1.36501 2.54753 1.37705 2.6082 1.40046 2.6648C1.42388 2.72141 1.45822 2.77284 1.50152 2.81617C1.54482 2.8595 1.59624 2.89387 1.65283 2.91732C1.70942 2.94077 1.77008 2.95284 1.83133 2.95284H2.32903C2.45277 2.95284 2.57144 3.00199 2.65894 3.08949C2.74643 3.17698 2.79559 3.29566 2.79559 3.41939C2.79559 3.54313 2.74643 3.6618 2.65894 3.7493C2.57144 3.8368 2.45277 3.88595 2.32903 3.88595H0.467168C0.343477 3.88595 0.224847 3.93507 0.137359 4.02251C0.0498698 4.10995 0.000682771 4.22855 0.000610352 4.35224C0.000610352 4.47598 0.0497654 4.59465 0.137262 4.68214C0.224759 4.76964 0.34343 4.8188 0.467168 4.8188H2.32903C2.45277 4.8188 2.57144 4.86795 2.65894 4.95545C2.74643 5.04294 2.79559 5.16161 2.79559 5.28535C2.79544 5.409 2.74622 5.52753 2.65874 5.61491C2.57126 5.70229 2.45267 5.75137 2.32903 5.75137H1.75321C1.62954 5.75137 1.51094 5.80049 1.42349 5.88794C1.33605 5.97538 1.28692 6.09398 1.28692 6.21765C1.28692 6.34134 1.33604 6.45997 1.42348 6.54746C1.51092 6.63495 1.62952 6.68414 1.75321 6.68421L3.59049 6.68284L3.74318 6.30233C4.05595 5.72542 4.67821 5.31677 5.33707 5.31677C6.16939 5.31677 6.76051 5.96853 6.6955 6.78856H9.47136M4.84402 2.23716H4.21794C4.21734 2.2372 4.21678 2.23744 4.21634 2.23784C4.2159 2.23823 4.21559 2.23876 4.21548 2.23934L4.15784 2.64908C4.15775 2.64941 4.15775 2.64975 4.15782 2.65009C4.15789 2.65042 4.15804 2.65073 4.15825 2.65099C4.15846 2.65126 4.15873 2.65147 4.15904 2.65161C4.15935 2.65176 4.15969 2.65182 4.16003 2.65181H4.62604C4.64891 2.65116 4.67164 2.65563 4.69257 2.66488C4.7135 2.67413 4.7321 2.68793 4.74702 2.70528C4.76194 2.72263 4.7728 2.7431 4.7788 2.76518C4.78481 2.78726 4.78581 2.8104 4.78174 2.83292C4.77375 2.88241 4.74876 2.92757 4.71107 2.96063C4.67338 2.99369 4.62534 3.01257 4.57523 3.01402H4.10867C4.1081 3.01401 4.10755 3.01419 4.1071 3.01454C4.10665 3.01489 4.10634 3.01538 4.10621 3.01594L4.02263 3.61115C4.01464 3.66065 3.98965 3.70581 3.95196 3.73886C3.91427 3.77192 3.86623 3.7908 3.81612 3.79226C3.79325 3.79292 3.77053 3.78846 3.74961 3.77921C3.72868 3.76995 3.71009 3.75614 3.6952 3.73879C3.6803 3.72143 3.66947 3.70096 3.6635 3.67887C3.65753 3.65679 3.65657 3.63365 3.66069 3.61115L3.87758 2.06725C3.88617 2.01498 3.91267 1.96732 3.95254 1.93244C3.9924 1.89756 4.04316 1.87762 4.09611 1.87604H4.89455C4.91742 1.87538 4.94014 1.87984 4.96106 1.88909C4.98199 1.89834 5.00058 1.91215 5.01547 1.92951C5.03037 1.94687 5.0412 1.96734 5.04717 1.98942C5.05314 2.0115 5.0541 2.03464 5.04998 2.05714C5.04189 2.10639 5.0169 2.15129 4.97932 2.18413C4.94175 2.21698 4.89391 2.23572 4.84402 2.23716ZM6.5174 1.99896C6.58244 2.05667 6.62821 2.13294 6.64852 2.21749C6.67123 2.31327 6.67494 2.41256 6.65944 2.50977C6.64045 2.66102 6.57855 2.80368 6.48107 2.92088C6.42154 2.99126 6.34593 3.04626 6.26063 3.08122C6.26024 3.08163 6.26003 3.08217 6.26003 3.08272C6.26003 3.08328 6.26024 3.08382 6.26063 3.08423L6.41578 3.53194C6.45758 3.65213 6.35023 3.79226 6.21665 3.79226H6.20791C6.1755 3.79321 6.14363 3.78382 6.11692 3.76546C6.0902 3.74709 6.07003 3.7207 6.05931 3.6901L5.87165 3.14378C5.87138 3.14336 5.87102 3.14303 5.87059 3.14279C5.87016 3.14255 5.86968 3.14242 5.86919 3.14241H5.47038C5.46982 3.14244 5.46929 3.14264 5.46885 3.14298C5.46841 3.14332 5.46808 3.14379 5.46792 3.14432L5.40236 3.61088C5.39437 3.66037 5.36938 3.70554 5.33169 3.73859C5.294 3.77165 5.24596 3.79053 5.19585 3.79199C5.17298 3.79264 5.15026 3.78819 5.12934 3.77893C5.10842 3.76968 5.08983 3.75587 5.07493 3.73851C5.06003 3.72115 5.0492 3.70068 5.04323 3.6786C5.03726 3.65652 5.0363 3.63338 5.04042 3.61088L5.25731 2.06698C5.2659 2.01471 5.2924 1.96705 5.33227 1.93216C5.37214 1.89728 5.42289 1.87734 5.47584 1.87576H6.09318C6.09318 1.87576 6.36416 1.8673 6.5174 1.99896ZM8.21646 2.0443C8.20903 2.09054 8.1857 2.13273 8.1505 2.16359C8.11529 2.19446 8.07041 2.21207 8.02361 2.21339H7.30547C7.30491 2.21342 7.30438 2.21362 7.30394 2.21396C7.3035 2.2143 7.30318 2.21477 7.30301 2.2153L7.24592 2.62067C7.24583 2.621 7.24583 2.62135 7.2459 2.62168C7.24597 2.62201 7.24612 2.62232 7.24633 2.62259C7.24654 2.62285 7.24681 2.62306 7.24712 2.6232C7.24743 2.62335 7.24776 2.62342 7.2481 2.6234H7.8059C7.82726 2.62277 7.84849 2.62692 7.86804 2.63555C7.88759 2.64418 7.90497 2.65707 7.9189 2.67328C7.93283 2.68948 7.94296 2.7086 7.94855 2.72923C7.95414 2.74985 7.95506 2.77147 7.95122 2.79249C7.94379 2.83872 7.92047 2.88091 7.88526 2.91178C7.85005 2.94265 7.80517 2.96026 7.75837 2.96158H7.2003C7.19974 2.96161 7.19921 2.96181 7.19877 2.96215C7.19833 2.96249 7.19801 2.96296 7.19784 2.96349L7.12928 3.45135C7.12928 3.45203 7.12953 3.45269 7.12998 3.4532C7.13044 3.4537 7.13106 3.45402 7.13174 3.45409H7.84933C7.87069 3.45345 7.89192 3.4576 7.91148 3.46623C7.93103 3.47486 7.9484 3.48775 7.96233 3.50396C7.97626 3.52017 7.98639 3.53928 7.99198 3.55991C7.99758 3.58053 7.99849 3.60215 7.99465 3.62317C7.98723 3.6694 7.9639 3.71159 7.92869 3.74246C7.89348 3.77333 7.84861 3.79094 7.8018 3.79226H6.9113C6.88727 3.79259 6.86346 3.78764 6.84156 3.77776C6.81966 3.76787 6.8002 3.75329 6.78456 3.73504C6.76892 3.7168 6.75749 3.69534 6.75107 3.67218C6.74465 3.64902 6.74339 3.62474 6.7474 3.60105L6.96292 2.06807C6.97152 2.0158 6.99802 1.96814 7.03788 1.93326C7.07775 1.89837 7.1285 1.87844 7.18145 1.87686H8.07168C8.09283 1.87636 8.11383 1.88054 8.13318 1.88911C8.15252 1.89768 8.16973 1.91043 8.18357 1.92643C8.19741 1.94244 8.20753 1.9613 8.21322 1.98168C8.2189 2.00206 8.22001 2.02345 8.21646 2.0443ZM9.70819 2.0443C9.70076 2.09054 9.67743 2.13273 9.64223 2.16359C9.60702 2.19446 9.56214 2.21207 9.51534 2.21339H8.7972C8.79664 2.21342 8.79611 2.21362 8.79567 2.21396C8.79523 2.2143 8.79491 2.21477 8.79474 2.2153L8.73792 2.62067C8.73784 2.621 8.73783 2.62135 8.7379 2.62168C8.73797 2.62201 8.73812 2.62232 8.73833 2.62259C8.73854 2.62285 8.73881 2.62306 8.73912 2.6232C8.73943 2.62335 8.73977 2.62342 8.74011 2.6234H9.2979C9.31926 2.62277 9.34049 2.62692 9.36005 2.63555C9.3796 2.64418 9.39697 2.65707 9.4109 2.67328C9.42483 2.68948 9.43496 2.7086 9.44055 2.72923C9.44615 2.74985 9.44706 2.77147 9.44322 2.79249C9.4358 2.83872 9.41247 2.88091 9.37726 2.91178C9.34205 2.94265 9.29718 2.96026 9.25037 2.96158H8.69203C8.69147 2.96161 8.69094 2.96181 8.6905 2.96215C8.69006 2.96249 8.68974 2.96296 8.68957 2.96349L8.62101 3.45135C8.62101 3.45203 8.62125 3.45269 8.62171 3.4532C8.62216 3.4537 8.62279 3.45402 8.62347 3.45409H9.34106C9.36242 3.45345 9.38365 3.4576 9.4032 3.46623C9.42276 3.47486 9.44013 3.48775 9.45406 3.50396C9.46799 3.52017 9.47812 3.53928 9.48371 3.55991C9.48931 3.58053 9.49022 3.60215 9.48638 3.62317C9.47896 3.6694 9.45563 3.71159 9.42042 3.74246C9.38521 3.77333 9.34033 3.79094 9.29353 3.79226H8.40303C8.379 3.79259 8.35519 3.78764 8.33329 3.77776C8.31139 3.76787 8.29193 3.75329 8.27629 3.73504C8.26065 3.7168 8.24922 3.69534 8.2428 3.67218C8.23637 3.64902 8.23512 3.62474 8.23913 3.60105L8.45465 2.06807C8.46325 2.0158 8.48975 1.96814 8.52961 1.93326C8.56948 1.89837 8.62023 1.87844 8.67318 1.87686H9.56341C9.58456 1.87636 9.60557 1.88054 9.62491 1.88911C9.64425 1.89768 9.66146 1.91043 9.6753 1.92643C9.68914 1.94244 9.69926 1.9613 9.70495 1.98168C9.71063 2.00206 9.71174 2.02345 9.70819 2.0443ZM10.7462 1.86921C10.9901 1.86921 11.3059 1.87249 11.6228 1.87768C12.0068 1.88396 12.3428 2.06042 12.5444 2.36144C12.7597 2.68607 12.9533 3.02462 13.1238 3.37487C13.2139 3.55843 13.0481 3.79745 12.831 3.79745H10.5023L10.7462 1.86921Z" fill="#0CAF3A"/>
<path d="M5.94704 2.80452H5.51544L5.59739 2.2134H6.02871C6.02871 2.2134 6.3453 2.19292 6.2934 2.50896C6.29477 2.50896 6.25844 2.80452 5.94704 2.80452Z" fill="#0CAF3A"/>
</svg>
