<svg width="16" height="19" viewBox="0 0 16 19" fill="none" xmlns="http://www.w3.org/2000/svg">
<path d="M6.91129 9.62431C9.46582 9.62416 10.385 7.06639 10.6256 4.96536C10.922 2.37712 9.69801 0.429138 6.91129 0.429138C4.12491 0.429138 2.90033 2.37697 3.19697 4.96536C3.43782 7.06639 4.35669 9.62448 6.91129 9.62431Z" fill="#F5DC6C"/>
<path d="M12.497 10.6891C12.5792 10.6891 12.6609 10.6915 12.742 10.696C12.6205 10.5226 12.4797 10.3697 12.3151 10.2467C11.8242 9.88036 11.1885 9.76016 10.6265 9.53932C10.3529 9.43186 10.1079 9.32512 9.87798 9.20358C9.10181 10.0548 8.08965 10.5 6.91099 10.5002C5.73272 10.5002 4.72065 10.0549 3.94457 9.20358C3.7146 9.32515 3.46957 9.43186 3.19606 9.53932C2.63406 9.76019 1.99836 9.88036 1.50748 10.2467C0.658564 10.8803 0.439177 12.3057 0.266804 13.278C0.124548 14.0806 0.028979 14.8997 0.00108504 15.7149C-0.0205246 16.3464 0.291259 16.4349 0.819555 16.6256C1.48104 16.8641 2.16404 17.0413 2.85164 17.1864C4.17955 17.4669 5.54834 17.6823 6.91123 17.692C7.57161 17.6873 8.23333 17.634 8.89114 17.5487C8.40408 16.843 8.11841 15.9882 8.11841 15.0677C8.11844 12.6533 10.0827 10.6891 12.497 10.6891Z" fill="#F5DC6C"/>
<path d="M12.497 11.5647C10.5625 11.5647 8.99411 13.1331 8.99411 15.0676C8.99411 17.0022 10.5625 18.5706 12.497 18.5706C14.4316 18.5706 16 17.0022 16 15.0676C16 13.133 14.4316 11.5647 12.497 11.5647ZM14.0296 15.6686H13.0981V16.6001C13.0981 16.932 12.829 17.2011 12.4971 17.2011C12.1651 17.2011 11.896 16.932 11.896 16.6001V15.6686H10.9645C10.6326 15.6686 10.3635 15.3995 10.3635 15.0676C10.3635 14.7356 10.6326 14.4665 10.9645 14.4665H11.896V13.535C11.896 13.2031 12.1651 12.934 12.4971 12.934C12.829 12.934 13.0981 13.2031 13.0981 13.535V14.4665H14.0296C14.3615 14.4665 14.6306 14.7356 14.6306 15.0676C14.6306 15.3996 14.3615 15.6686 14.0296 15.6686Z" fill="#F5DC6C"/>
</svg>
