<svg width="16" height="19" viewBox="0 0 16 19" fill="none" xmlns="http://www.w3.org/2000/svg">
<path d="M8.00001 10.0748C10.6044 10.0747 11.5415 7.46698 11.7869 5.32493C12.089 2.68605 10.8413 0.700012 8.00001 0.700012C5.15922 0.700012 3.91075 2.68591 4.21317 5.3249C4.45876 7.46692 5.39553 10.075 8.00001 10.0748Z" fill="#F5DC6C"/>
<path d="M15.0452 16.2843C15.0167 15.4531 14.9193 14.6181 14.7743 13.7998C14.5985 12.8086 14.3748 11.3553 13.5094 10.7093C13.0089 10.3358 12.3608 10.2133 11.7878 9.98806C11.5089 9.8785 11.2591 9.76967 11.0246 9.64581C10.2333 10.5136 9.20135 10.9676 7.99967 10.9677C6.79832 10.9677 5.76654 10.5137 4.97525 9.64581C4.74079 9.7697 4.49097 9.87855 4.2121 9.98806C3.63912 10.2133 2.991 10.3358 2.49055 10.7093C1.62504 11.3553 1.40139 12.8086 1.22568 13.7998C1.08059 14.6181 0.98316 15.4531 0.954719 16.2843C0.93269 16.9282 1.25058 17.0184 1.78919 17.2128C2.46366 17.456 3.15998 17.6366 3.86096 17.7846C5.21481 18.0705 6.61033 18.2902 7.99987 18.3001C9.3894 18.2902 10.7849 18.0705 12.1388 17.7846C12.8398 17.6366 13.5361 17.4561 14.2105 17.2128C14.7494 17.0185 15.0672 16.9282 15.0452 16.2843Z" fill="#F5DC6C"/>
</svg>
