<svg width="32" height="28" viewBox="0 0 32 28" fill="none" xmlns="http://www.w3.org/2000/svg">
<path d="M29.8699 21.0772C32.9484 16.7579 32.4778 10.8403 28.273 6.98557C26.3517 5.22436 23.9025 4.12795 21.2567 3.82175C21.2402 3.80147 21.2234 3.78137 21.2049 3.76214C18.9032 1.37125 15.5965 0 12.1326 0C5.54083 0 0 4.91139 0 11.2C0 13.4048 0.68488 15.5185 1.98588 17.3439L0.168436 23.05C0.0541956 23.4087 0.166569 23.8007 0.453351 24.0445C0.740631 24.2886 1.14588 24.3355 1.4807 24.1652L7.00772 21.3549C8.14277 21.8436 9.3464 22.1643 10.5928 22.3102C12.9972 24.8387 16.3218 26.1333 19.7232 26.1333C21.4913 26.1333 23.253 25.773 24.8478 25.0881L30.3751 27.8986C30.5089 27.9667 30.6538 28 30.7979 28C31.4278 28 31.8793 27.3862 31.6874 26.7834L29.8699 21.0772ZM7.38441 19.4769C7.12301 19.3527 6.81893 19.3568 6.56102 19.488L2.62441 21.4897L3.90992 17.4536C4.0035 17.1597 3.94595 16.8386 3.75604 16.5957C2.51994 15.0134 1.86654 13.1476 1.86654 11.2C1.86654 6.0536 6.47186 1.86667 12.1326 1.86667C14.4122 1.86667 16.6067 2.55727 18.3868 3.80091C12.3918 4.40372 7.59061 9.08619 7.59061 14.9333C7.59061 16.752 8.05678 18.5028 8.93567 20.0714C8.40355 19.9129 7.8853 19.7147 7.38441 19.4769ZM25.2948 23.2213C25.0406 23.092 24.7363 23.0843 24.4714 23.2102C23.0163 23.9014 21.3745 24.2667 19.7232 24.2667C14.0625 24.2667 9.45716 20.0797 9.45716 14.9333C9.45716 9.78693 14.0625 5.6 19.7232 5.6C25.3839 5.6 29.9892 9.78693 29.9892 14.9333C29.9892 16.881 29.3358 18.7467 28.0997 20.3289C27.9098 20.5719 27.8523 20.893 27.9458 21.1869L29.2313 25.223L25.2948 23.2213Z" fill="#E35000"/>
<path d="M15.9279 15.8667C16.4434 15.8667 16.8612 15.4488 16.8612 14.9333C16.8612 14.4179 16.4434 14 15.9279 14C15.4124 14 14.9946 14.4179 14.9946 14.9333C14.9946 15.4488 15.4124 15.8667 15.9279 15.8667Z" fill="#E35000"/>
<path d="M19.6611 15.8667C20.1765 15.8667 20.5944 15.4488 20.5944 14.9333C20.5944 14.4179 20.1765 14 19.6611 14C19.1456 14 18.7277 14.4179 18.7277 14.9333C18.7277 15.4488 19.1456 15.8667 19.6611 15.8667Z" fill="#E35000"/>
<path d="M23.3941 15.8667C23.9096 15.8667 24.3275 15.4488 24.3275 14.9333C24.3275 14.4179 23.9096 14 23.3941 14C22.8787 14 22.4608 14.4179 22.4608 14.9333C22.4608 15.4488 22.8787 15.8667 23.3941 15.8667Z" fill="#E35000"/>
</svg>
