<svg width="32" height="33" viewBox="0 0 32 33" fill="none" xmlns="http://www.w3.org/2000/svg">
<g clip-path="url(#clip0_51_6112)">
<path d="M16 0.78125C7.16481 0.78125 0 7.94606 0 16.7812C0 25.6164 7.16481 32.7812 16 32.7812C24.8352 32.7812 32 25.6164 32 16.7812C32 7.94606 24.8352 0.78125 16 0.78125ZM24.0269 13.0233V15.1897C23.0053 15.1901 22.0128 14.9899 21.0766 14.595C20.4747 14.3409 19.9139 14.0134 19.4009 13.6178L19.4163 20.2861C19.4099 21.7876 18.8158 23.1984 17.7406 24.2611C16.8656 25.1261 15.7569 25.6762 14.5551 25.8542C14.2727 25.8961 13.9854 25.9175 13.6947 25.9175C12.4083 25.9175 11.187 25.5007 10.1879 24.7319C9.99994 24.5871 9.82012 24.4302 9.64894 24.2611C8.48369 23.1094 7.88281 21.5486 7.984 19.9065C8.06119 18.6566 8.56162 17.4645 9.39587 16.5302C10.4996 15.2938 12.0437 14.6076 13.6947 14.6076C13.9854 14.6076 14.2727 14.6294 14.5551 14.6712V15.4722V17.7004C14.2874 17.6121 14.0014 17.5636 13.7037 17.5636C12.1953 17.5636 10.975 18.7942 10.9976 20.3037C11.0119 21.2695 11.5394 22.1137 12.3176 22.5791C12.6832 22.7979 13.1039 22.9334 13.5529 22.958C13.9046 22.9773 14.2424 22.9283 14.5551 22.8251C15.6328 22.4691 16.4102 21.4568 16.4102 20.2629L16.4138 15.7975V7.645H19.3973C19.4002 7.94063 19.4302 8.22906 19.4859 8.50856C19.7111 9.63988 20.3488 10.6214 21.2363 11.2905C22.0102 11.8742 22.9738 12.2202 24.0182 12.2202C24.0189 12.2202 24.0276 12.2202 24.0268 12.2195V13.0233H24.0269Z" fill="white"/>
</g>
<defs>
<clipPath id="clip0_51_6112">
<rect width="32" height="32" fill="white" transform="translate(0 0.78125)"/>
</clipPath>
</defs>
</svg>
