<svg width="9" height="11" viewBox="0 0 9 11" fill="none" xmlns="http://www.w3.org/2000/svg">
<path d="M4.22008 4.94793C4.89983 4.94793 5.48837 4.70413 5.96938 4.22311C6.45024 3.74218 6.69412 3.15372 6.69412 2.47389C6.69412 1.79429 6.45032 1.20575 5.9693 0.724659C5.48829 0.243799 4.89975 0 4.22008 0C3.54024 0 2.95179 0.243799 2.47085 0.724737C1.98991 1.20567 1.74603 1.79421 1.74603 2.47389C1.74603 3.15372 1.98991 3.74225 2.47085 4.22319C2.95194 4.70405 3.54048 4.94793 4.22008 4.94793ZM2.89654 1.15035C3.26557 0.781318 3.69847 0.601936 4.22008 0.601936C4.74161 0.601936 5.17458 0.781318 5.54369 1.15035C5.91272 1.51946 6.09218 1.95243 6.09218 2.47389C6.09218 2.9955 5.91272 3.42839 5.54369 3.7975C5.17458 4.16661 4.74161 4.34599 4.22008 4.34599C3.69862 4.34599 3.26572 4.16653 2.89654 3.7975C2.52743 3.42847 2.34797 2.9955 2.34797 2.47389C2.34797 1.95243 2.52743 1.51946 2.89654 1.15035Z" fill="#888888"/>
<path d="M8.54897 7.89871C8.53509 7.69856 8.50704 7.48023 8.46574 7.24968C8.42405 7.0174 8.37037 6.79782 8.30611 6.59712C8.23965 6.38968 8.14945 6.18483 8.03778 5.98852C7.92203 5.78477 7.78599 5.60734 7.63333 5.46135C7.47369 5.30861 7.27825 5.18581 7.05224 5.09623C6.82701 5.00713 6.57741 4.96199 6.31042 4.96199C6.20556 4.96199 6.10415 5.00502 5.90831 5.13252C5.78779 5.21112 5.6468 5.30203 5.48944 5.40257C5.35489 5.4883 5.17261 5.56863 4.94746 5.64135C4.7278 5.71243 4.50476 5.74848 4.28455 5.74848C4.0645 5.74848 3.84147 5.71243 3.62165 5.64135C3.39673 5.56871 3.21437 5.48838 3.08005 5.40265C2.92418 5.30305 2.78312 5.21214 2.66079 5.13244C2.46511 5.00494 2.3637 4.96191 2.25885 4.96191C1.99177 4.96191 1.74225 5.00713 1.5171 5.09631C1.29125 5.18573 1.09573 5.30853 0.935936 5.46142C0.783277 5.6075 0.647232 5.78484 0.531563 5.98852C0.420047 6.18483 0.329768 6.3896 0.263313 6.5972C0.19913 6.79789 0.145449 7.0174 0.103758 7.24968C0.06238 7.47992 0.0344031 7.69833 0.0205321 7.89895C0.00689629 8.0951 0 8.29925 0 8.50551C0 9.04169 0.170448 9.47577 0.506564 9.7959C0.838526 10.1118 1.27769 10.272 1.81192 10.272H6.75781C7.29188 10.272 7.73105 10.1118 8.06309 9.7959C8.39928 9.476 8.56973 9.04177 8.56973 8.50543C8.56965 8.29846 8.56268 8.09432 8.54897 7.89871ZM7.64806 9.35979C7.42871 9.56855 7.1375 9.67004 6.75773 9.67004H1.81192C1.43208 9.67004 1.14087 9.56855 0.921595 9.35986C0.706477 9.15509 0.601936 8.87556 0.601936 8.50551C0.601936 8.31304 0.608284 8.123 0.620979 7.94056C0.633361 7.76157 0.658674 7.56495 0.696211 7.35602C0.733279 7.14968 0.780456 6.95604 0.836567 6.78073C0.890405 6.61263 0.963834 6.44618 1.0549 6.28584C1.14181 6.13303 1.2418 6.00192 1.35214 5.89628C1.45535 5.79746 1.58544 5.71659 1.73873 5.65593C1.88049 5.59982 2.03981 5.5691 2.21277 5.56448C2.23385 5.57568 2.27139 5.59708 2.3322 5.63673C2.45594 5.71737 2.59857 5.80937 2.75624 5.91008C2.93398 6.02339 3.16297 6.12574 3.43654 6.21406C3.71624 6.3045 4.00149 6.35042 4.28463 6.35042C4.56777 6.35042 4.8531 6.3045 5.13264 6.21414C5.40645 6.12566 5.63536 6.02339 5.81333 5.90992C5.97469 5.80679 6.11332 5.71745 6.23706 5.63673C6.29788 5.59716 6.33541 5.57568 6.35649 5.56448C6.52953 5.5691 6.68885 5.59982 6.83069 5.65593C6.9839 5.71659 7.11399 5.79754 7.2172 5.89628C7.32754 6.00184 7.42754 6.13295 7.51444 6.28592C7.60558 6.44618 7.67909 6.61271 7.73285 6.78065C7.78904 6.95619 7.8363 7.14976 7.87329 7.35594C7.91075 7.56526 7.93614 7.76196 7.94852 7.94064V7.9408C7.96129 8.12253 7.96772 8.31249 7.9678 8.50551C7.96772 8.87563 7.86318 9.15509 7.64806 9.35979Z" fill="#888888"/>
</svg>
