<svg width="60" height="60" viewBox="0 0 60 60" fill="none" xmlns="http://www.w3.org/2000/svg">
<circle cx="30" cy="30" r="30" fill="url(#paint0_radial_17_1463)"/>
<path d="M40.7586 43.313H19.2414C17.4512 43.313 16 41.8618 16 40.0716V19.9284C16 18.1383 17.4512 16.687 19.2414 16.687H40.7586C42.5488 16.687 44 18.1382 44 19.9284V40.0716C43.9999 41.8618 42.5488 43.313 40.7586 43.313Z" fill="#FAA431"/>
<path d="M16 31.6668V40.0716C16 41.8618 17.4512 43.313 19.2414 43.313H40.7586C42.5488 43.313 44 41.8618 44 40.0716V31.6668H16Z" fill="#F8E79A"/>
<path d="M33.9438 23.765H26.0561C25.6061 23.765 25.2412 23.4002 25.2412 22.9501V19.8472C25.2412 19.3971 25.6061 19.0323 26.0561 19.0323H33.9438C34.3938 19.0323 34.7587 19.3971 34.7587 19.8472V22.9501C34.7587 23.4002 34.3939 23.765 33.9438 23.765Z" fill="#F8E79A"/>
<path d="M33.0427 23.765C33.0427 22.0846 31.6805 20.7223 30 20.7223C28.3195 20.7223 26.9572 22.0846 26.9572 23.765H33.0427Z" fill="#FF9506"/>
<path d="M29.9996 24.1752C29.9283 24.1752 29.856 24.1566 29.7902 24.1175C29.5955 24.0017 29.5317 23.7499 29.6475 23.5553L31.3849 20.6357C31.5007 20.441 31.7523 20.3771 31.9471 20.493C32.1418 20.6088 32.2057 20.8605 32.0898 21.0552L30.3525 23.9748C30.2758 24.1037 30.1394 24.1752 29.9996 24.1752Z" fill="white"/>
<path d="M33.9438 24.1752H26.0561C25.3806 24.1752 24.8311 23.6256 24.8311 22.9502V19.8472C24.8311 19.1717 25.3807 18.6222 26.0561 18.6222H33.9438C34.6193 18.6222 35.1688 19.1717 35.1688 19.8472V22.9502C35.1688 23.6256 34.6193 24.1752 33.9438 24.1752ZM26.0561 19.4425C25.833 19.4425 25.6515 19.624 25.6515 19.8472V22.9501C25.6515 23.1733 25.833 23.3548 26.0561 23.3548H33.9438C34.167 23.3548 34.3485 23.1733 34.3485 22.9501V19.8472C34.3485 19.6241 34.1669 19.4425 33.9438 19.4425L26.0561 19.4425Z" fill="#FF9200"/>
<path d="M36.8466 39.9285C38.7187 38.0049 40.6379 34.6416 39.9657 29.6063C39.735 27.8779 38.4771 26.2814 36.6408 26.2814C34.8045 26.2814 33.5546 27.6285 33.316 29.6063C33.1269 31.1733 33.5263 32.2236 33.8495 33.5813C34.2958 35.4565 33.1497 36.7198 33.1497 38.3971C33.1497 39.5932 34.1192 40.5627 35.3153 40.5627C35.9133 40.5628 36.4547 40.3203 36.8466 39.9285Z" fill="#FAA431"/>
<path opacity="0.1" d="M35.3153 39.7425C34.5735 39.7425 33.97 39.139 33.97 38.3971C33.97 37.825 34.1452 37.2732 34.3307 36.6891C34.6259 35.7596 34.9604 34.7062 34.6475 33.3914C34.5884 33.1429 34.5273 32.9067 34.4683 32.6781C34.203 31.6512 33.9934 30.84 34.1305 29.7046C34.3271 28.0747 35.2656 27.1017 36.6409 27.1017C38.0609 27.1017 38.9794 28.4163 39.1527 29.7148C39.4393 31.8619 39.2502 33.8591 38.5905 35.6509C38.0767 37.0466 37.2936 38.2919 36.2631 39.3519C36.0094 39.6038 35.673 39.7425 35.3153 39.7425Z" fill="#F8E79A"/>
<path d="M16 38.6912V40.0716C16 41.8618 17.4512 43.313 19.2414 43.313H20.6218C20.6218 40.7605 18.5525 38.6912 16 38.6912Z" fill="#FAA431"/>
<path d="M43.9999 38.6912V40.0716C43.9999 41.8618 42.5488 43.313 40.7586 43.313H39.3781C39.3782 40.7605 41.4474 38.6912 43.9999 38.6912Z" fill="#FAA431"/>
<path d="M22.2513 20.8169C22.7164 20.8169 23.0935 20.4398 23.0935 19.9747C23.0935 19.5096 22.7164 19.1326 22.2513 19.1326C21.7862 19.1326 21.4092 19.5096 21.4092 19.9747C21.4092 20.4398 21.7862 20.8169 22.2513 20.8169Z" fill="#FF9200"/>
<path d="M19.1093 20.817C19.5744 20.817 19.9514 20.44 19.9514 19.9749C19.9514 19.5098 19.5744 19.1327 19.1093 19.1327C18.6442 19.1327 18.2672 19.5098 18.2672 19.9749C18.2672 20.44 18.6442 20.817 19.1093 20.817Z" fill="#FF9200"/>
<path d="M22.2513 23.6962C22.7164 23.6962 23.0935 23.3192 23.0935 22.8541C23.0935 22.389 22.7164 22.0119 22.2513 22.0119C21.7862 22.0119 21.4092 22.389 21.4092 22.8541C21.4092 23.3192 21.7862 23.6962 22.2513 23.6962Z" fill="#FF9200"/>
<path d="M19.1093 23.6962C19.5744 23.6962 19.9514 23.3192 19.9514 22.8541C19.9514 22.389 19.5744 22.0119 19.1093 22.0119C18.6442 22.0119 18.2672 22.389 18.2672 22.8541C18.2672 23.3192 18.6442 23.6962 19.1093 23.6962Z" fill="#FF9200"/>
<path d="M37.7486 20.8169C38.2137 20.8169 38.5908 20.4398 38.5908 19.9747C38.5908 19.5096 38.2137 19.1326 37.7486 19.1326C37.2835 19.1326 36.9065 19.5096 36.9065 19.9747C36.9065 20.4398 37.2835 20.8169 37.7486 20.8169Z" fill="#FF9200"/>
<path d="M40.8904 20.8169C41.3555 20.8169 41.7326 20.4398 41.7326 19.9747C41.7326 19.5096 41.3555 19.1326 40.8904 19.1326C40.4253 19.1326 40.0483 19.5096 40.0483 19.9747C40.0483 20.4398 40.4253 20.8169 40.8904 20.8169Z" fill="#FF9200"/>
<path d="M37.7486 23.6961C38.2137 23.6961 38.5908 23.3191 38.5908 22.854C38.5908 22.3889 38.2137 22.0119 37.7486 22.0119C37.2835 22.0119 36.9065 22.3889 36.9065 22.854C36.9065 23.3191 37.2835 23.6961 37.7486 23.6961Z" fill="#FF9200"/>
<path d="M40.8904 23.6961C41.3555 23.6961 41.7326 23.3191 41.7326 22.854C41.7326 22.3889 41.3555 22.0119 40.8904 22.0119C40.4253 22.0119 40.0483 22.3889 40.0483 22.854C40.0483 23.3191 40.4253 23.6961 40.8904 23.6961Z" fill="#FF9200"/>
<path opacity="0.4" d="M32.7143 43.3131C22.7833 37.7511 20.0654 22.1504 22.9886 16.687H19.2414C17.4512 16.687 16 18.1383 16 19.9284V40.0717C16 41.8618 17.4512 43.3131 19.2414 43.3131H32.7143Z" fill="#FE9100"/>
<path d="M23.1533 39.9285C21.2812 38.0049 19.362 34.6416 20.0342 29.6063C20.2649 27.8779 21.5228 26.2814 23.3591 26.2814C25.1954 26.2814 26.4453 27.6285 26.684 29.6063C26.873 31.1733 26.4736 32.2236 26.1505 33.5813C25.7042 35.4565 26.8503 36.7198 26.8503 38.3971C26.8503 39.5932 25.8807 40.5627 24.6847 40.5627C24.0866 40.5628 23.5452 40.3203 23.1533 39.9285Z" fill="#FAA431"/>
<path opacity="0.1" d="M24.6846 39.7425C24.3269 39.7425 23.9906 39.6038 23.7369 39.3519C22.7064 38.2919 21.9233 37.0467 21.4095 35.6509C20.7498 33.8591 20.5607 31.8619 20.8473 29.7148C21.0206 28.4163 21.9391 27.1017 23.3591 27.1017C24.7344 27.1017 25.6729 28.0747 25.8696 29.7046C26.0065 30.84 25.797 31.6512 25.5317 32.6781C25.4726 32.9067 25.4116 33.1429 25.3525 33.3914C25.0396 34.7062 25.3741 35.7596 25.6693 36.6891C25.8548 37.2733 26.03 37.825 26.03 38.3971C26.03 39.1389 25.4265 39.7425 24.6846 39.7425Z" fill="#F8E79A"/>
<defs>
<radialGradient id="paint0_radial_17_1463" cx="0" cy="0" r="1" gradientUnits="userSpaceOnUse" gradientTransform="translate(30 30) rotate(90) scale(30)">
<stop offset="0.117731" stop-color="white" stop-opacity="0.5"/>
<stop offset="1" stop-color="#FAD42C"/>
</radialGradient>
</defs>
</svg>
