<svg width="32" height="33" viewBox="0 0 32 33" fill="none" xmlns="http://www.w3.org/2000/svg">
<g clip-path="url(#clip0_51_6106)">
<path d="M14.0066 19.7793L19.2112 16.7817L14.0066 13.7842V19.7793Z" fill="white"/>
<path d="M16 0.78125C7.16479 0.78125 0 7.94604 0 16.7812C0 25.6165 7.16479 32.7812 16 32.7812C24.8352 32.7812 32 25.6165 32 16.7812C32 7.94604 24.8352 0.78125 16 0.78125ZM25.9976 16.7976C25.9976 16.7976 25.9976 20.0425 25.5859 21.6072C25.3552 22.4636 24.6799 23.1389 23.8235 23.3694C22.2588 23.7812 16 23.7812 16 23.7812C16 23.7812 9.75757 23.7812 8.17651 23.353C7.32007 23.1226 6.64478 22.447 6.41406 21.5906C6.0022 20.0425 6.0022 16.7812 6.0022 16.7812C6.0022 16.7812 6.0022 13.5366 6.41406 11.9719C6.64453 11.1155 7.33643 10.4236 8.17651 10.1931C9.74121 9.78125 16 9.78125 16 9.78125C16 9.78125 22.2588 9.78125 23.8235 10.2095C24.6799 10.4399 25.3552 11.1155 25.5859 11.9719C26.0142 13.5366 25.9976 16.7976 25.9976 16.7976Z" fill="white"/>
</g>
<defs>
<clipPath id="clip0_51_6106">
<rect width="32" height="32" fill="white" transform="translate(0 0.78125)"/>
</clipPath>
</defs>
</svg>
